<svg width="357" height="223" viewBox="0 0 357 223" fill="none" xmlns="http://www.w3.org/2000/svg">
<path d="M356.739 177.813H0V178.861H356.739V177.813Z" fill="black"/>
<path d="M345.182 202.747H19.1471V203.795H345.182V202.747Z" fill="black"/>
<path d="M94.3966 32.4463H58.8927C56.4739 32.4463 54.1541 33.4071 52.4437 35.1175C50.7333 36.8279 49.7725 39.1477 49.7725 41.5665C49.7721 42.7644 50.0078 43.9507 50.4659 45.0575C50.9241 46.1643 51.5959 47.1701 52.4428 48.0172C53.2897 48.8644 54.2953 49.5364 55.402 49.9949C56.5086 50.4534 57.6948 50.6894 58.8927 50.6894H61.0438L59.1836 57.8656L69.5457 50.6894H94.3966C96.8161 50.6894 99.1366 49.7283 100.847 48.0174C102.558 46.3065 103.519 43.9861 103.519 41.5665C103.519 39.1474 102.557 36.8277 100.847 35.1174C99.1357 33.4071 96.8157 32.4463 94.3966 32.4463Z" fill="white"/>
<path d="M58.3373 59.097L60.3678 51.2134H58.8927C56.3621 51.1717 53.9492 50.1371 52.1743 48.3328C50.3995 46.5284 49.4048 44.0988 49.4048 41.5678C49.4048 39.0368 50.3995 36.6072 52.1743 34.8029C53.9492 32.9985 56.3621 31.9639 58.8927 31.9222H94.3965C95.6766 31.9011 96.948 32.135 98.1368 32.6103C99.3255 33.0856 100.408 33.7927 101.32 34.6905C102.233 35.5882 102.958 36.6587 103.453 37.8394C103.948 39.0202 104.202 40.2876 104.202 41.5678C104.202 42.8481 103.948 44.1155 103.453 45.2962C102.958 46.477 102.233 47.5474 101.32 48.4452C100.408 49.343 99.3255 50.0501 98.1368 50.5254C96.948 51.0006 95.6766 51.2345 94.3965 51.2134H69.7212L58.3373 59.097ZM58.8927 32.9702C56.6385 33.0096 54.4899 33.9327 52.9096 35.5408C51.3294 37.1489 50.4439 39.3133 50.4439 41.5678C50.4439 43.8224 51.3294 45.9868 52.9096 47.5949C54.4899 49.2029 56.6385 50.1261 58.8927 50.1654H61.7197L60.0534 56.6342L69.4016 50.1654H94.3965C95.5382 50.1853 96.6724 49.9777 97.733 49.5546C98.7936 49.1314 99.7592 48.5013 100.574 47.701C101.388 46.9007 102.035 45.9461 102.477 44.8931C102.918 43.8401 103.146 42.7097 103.146 41.5678C103.146 40.426 102.918 39.2956 102.477 38.2425C102.035 37.1895 101.388 36.235 100.574 35.4347C99.7592 34.6343 98.7936 34.0042 97.733 33.5811C96.6724 33.158 95.5382 32.9503 94.3965 32.9702H58.8927Z" fill="black"/>
<path d="M66.0794 44.0713C67.4613 44.0713 68.5815 42.951 68.5815 41.5692C68.5815 40.1873 67.4613 39.067 66.0794 39.067C64.6975 39.067 63.5773 40.1873 63.5773 41.5692C63.5773 42.951 64.6975 44.0713 66.0794 44.0713Z" fill="url(#paint0_linear_1_324)"/>
<path d="M76.583 44.0713C77.9649 44.0713 79.0852 42.951 79.0852 41.5692C79.0852 40.1873 77.9649 39.067 76.583 39.067C75.2012 39.067 74.0809 40.1873 74.0809 41.5692C74.0809 42.951 75.2012 44.0713 76.583 44.0713Z" fill="url(#paint1_linear_1_324)"/>
<path d="M87.2098 44.0713C88.5917 44.0713 89.712 42.951 89.712 41.5692C89.712 40.1873 88.5917 39.067 87.2098 39.067C85.828 39.067 84.7077 40.1873 84.7077 41.5692C84.7077 42.951 85.828 44.0713 87.2098 44.0713Z" fill="url(#paint2_linear_1_324)"/>
<path d="M257.519 90.7836L256.19 75.2548C256.19 75.2548 242.425 80.8721 242.184 45.1849L242.847 32.766L271.101 35.745L278.919 51.4336L278.094 59.1915L273.142 64.4918L278.015 84.5899L257.519 90.7836Z" fill="white"/>
<path d="M257.055 91.4727L255.724 75.9386C254.73 76.1511 253.703 76.1568 252.707 75.9553C251.711 75.7538 250.767 75.3495 249.934 74.7675C243.232 70.2951 241.736 56.2125 241.662 45.1875V45.1561L242.362 32.1922L271.444 35.2577L279.459 51.3419L278.597 59.4273L273.721 64.649L278.644 84.9541L257.055 91.4727ZM256.651 74.5081L256.714 75.2103L257.988 90.0972L277.397 84.2362L272.573 64.3477L277.599 58.9662L278.385 51.5358L270.763 36.2402L243.344 33.3581L242.705 45.2032C242.839 64.6752 247.01 71.5475 250.484 73.8872C253.335 75.8024 255.884 74.8199 255.986 74.778L256.651 74.5081Z" fill="black"/>
<path d="M299.544 55.1331C300.288 49.2537 300.511 43.715 299.531 39.9763C295.098 23.0693 282.48 26.4177 277.842 29.9862C277.115 30.5495 276.428 31.1623 275.785 31.8202C272.117 28.6761 265.127 24.9767 255.721 30.7171C255.721 30.7171 241.028 25.4299 236.967 39.7562C232.906 54.0824 253.615 48.2319 261.333 44.2102C261.333 44.2102 263.408 48.9891 268.806 44.7106L270.881 49.1227C270.881 49.1227 273.54 46.5525 275.251 48.19C276.962 49.8275 278.133 56.3592 273.053 58.2299C273.053 58.2299 271.965 61.4997 272.699 64.518L273.514 67.8873C276.542 66.1966 279.114 63.7949 281.007 60.8892C282.165 68.2069 286.106 71.6994 290.604 74.1753C306.395 82.8633 315.573 65.5895 315.573 65.5895C302.214 74.0024 298.8 61.0124 299.544 55.1331Z" fill="black"/>
<path d="M252.983 62.6341C251.985 62.5085 250.998 62.3106 250.028 62.042L249.577 61.9163L250.555 55.657L251.603 55.8195L250.77 61.1486C251.523 61.3482 252.29 61.4944 253.065 61.5861L252.983 62.6341Z" fill="black"/>
<path d="M254.448 68.8803C254.334 68.8808 254.22 68.8721 254.107 68.8541C252.514 68.5921 251.899 66.6166 251.873 66.5328L251.7 65.9616L259.172 64.7119L258.465 65.7337C256.995 67.8454 255.685 68.8803 254.448 68.8803ZM253.117 66.7843C253.355 67.2297 253.748 67.7354 254.272 67.8166C254.946 67.9214 255.844 67.3424 256.819 66.166L253.117 66.7843Z" fill="black"/>
<path d="M258.566 53.7272C258.567 52.9038 258.093 52.2358 257.507 52.2349C256.921 52.2341 256.445 52.9009 256.444 53.7242C256.442 54.5476 256.917 55.2157 257.503 55.2165C258.089 55.2173 258.565 54.5505 258.566 53.7272Z" fill="black"/>
<path d="M246.541 56.3843C247.108 56.237 247.4 55.4716 247.193 54.6747C246.986 53.8778 246.359 53.3512 245.792 53.4985C245.224 53.6458 244.932 54.4113 245.139 55.2082C245.346 56.0051 245.974 56.5317 246.541 56.3843Z" fill="black"/>
<path d="M247.455 51.6511C245.498 50.1603 242.317 51.1061 242.286 51.1271L241.979 50.1236C242.129 50.0791 245.7 49.0101 248.089 50.8284L247.455 51.6511Z" fill="black"/>
<path d="M261.003 51.1559C257.482 47.7237 254.668 50.3699 254.55 50.4747L253.817 49.7254C253.853 49.6913 257.469 46.2434 261.737 50.4066L261.003 51.1559Z" fill="black"/>
<path d="M272.018 52.8746L271.017 52.5681C271.937 49.5655 273.899 49.576 273.97 49.576V50.624C273.907 50.624 272.691 50.6738 272.018 52.8746Z" fill="black"/>
<path d="M281.434 61.1774L280.585 60.5617C287.198 51.4519 281.052 40.4557 280.989 40.3457L281.898 39.8217C281.964 39.9422 288.435 51.5253 281.434 61.1774Z" fill="white"/>
<path d="M275.78 32.0743L274.876 31.5503C275.013 31.3171 278.303 25.7994 284.552 24.3479C288.652 23.3968 293.03 24.4343 297.563 27.4343L296.987 28.3093C292.706 25.4745 288.603 24.4867 284.798 25.3671C279.003 26.7059 275.812 32.0219 275.78 32.0743Z" fill="black"/>
<path d="M256.557 32.3521L255.674 31.6735C255.32 31.4115 246.91 25.0815 239.066 31.8254L238.382 31.0394C245.236 25.147 252.64 28.5897 255.294 30.1801C254.477 27.34 251.128 26.0221 251.102 26.0064L251.474 25.0265C252.355 25.3924 253.179 25.8821 253.921 26.4806C255.562 27.8063 256.463 29.4517 256.541 31.2464L256.557 32.3521Z" fill="black"/>
<path d="M168.176 0.524078H216.219C217.84 0.524078 219.445 0.843335 220.943 1.46362C222.44 2.08391 223.801 2.99309 224.947 4.13923C226.093 5.28537 227.002 6.64604 227.623 8.14355C228.243 9.64106 228.562 11.2461 228.562 12.867C228.562 16.1405 227.262 19.28 224.947 21.5947C222.632 23.9095 219.493 25.2099 216.219 25.2099H213.309L215.811 34.9196L201.788 25.2099H168.176C164.903 25.2099 161.763 23.9095 159.448 21.5947C157.134 19.28 155.833 16.1405 155.833 12.867C155.833 11.2461 156.153 9.64106 156.773 8.14355C157.393 6.64604 158.302 5.28537 159.448 4.13923C160.595 2.99309 161.955 2.08391 163.453 1.46362C164.95 0.843335 166.555 0.524078 168.176 0.524078Z" fill="white"/>
<path d="M216.667 36.1511L201.626 25.7339H168.176C164.764 25.7339 161.491 24.3783 159.078 21.9653C156.665 19.5522 155.309 16.2795 155.309 12.867C155.309 9.45448 156.665 6.18173 159.078 3.76872C161.491 1.35571 164.764 9.15527e-05 168.176 9.15527e-05H216.219C219.632 9.15527e-05 222.905 1.35571 225.318 3.76872C227.731 6.18173 229.086 9.45448 229.086 12.867C229.086 16.2795 227.731 19.5522 225.318 21.9653C222.905 24.3783 219.632 25.7339 216.219 25.7339H213.985L216.667 36.1511ZM168.176 1.0481C165.042 1.0481 162.035 2.2933 159.819 4.50977C157.602 6.72624 156.357 9.73242 156.357 12.867C156.357 16.0016 157.602 19.0077 159.819 21.2242C162.035 23.4407 165.042 24.6859 168.176 24.6859H201.953L214.951 33.6883L212.633 24.6859H216.219C219.354 24.6859 222.36 23.4407 224.577 21.2242C226.793 19.0077 228.038 16.0016 228.038 12.867C228.038 9.73242 226.793 6.72624 224.577 4.50977C222.36 2.2933 219.354 1.0481 216.219 1.0481H168.176Z" fill="black"/>
<path d="M186.081 7.70819H169.63V8.7562H186.081V7.70819Z" fill="black"/>
<path d="M214.763 12.1386H169.63V13.1866H214.763V12.1386Z" fill="black"/>
<path d="M214.763 16.5664H169.63V17.6144H214.763V16.5664Z" fill="black"/>
<path d="M234.57 179.566L232.864 134.263L210.516 114.99L226.388 95.5626C226.388 95.5626 231.856 90.0343 240.494 86.4423C246.302 84.024 250.342 82.5699 256.164 81.3621C256.164 81.3621 258.884 93.5373 279.453 78.577C279.453 78.577 302.51 83.4266 309.125 87.4588C314.585 90.7941 316.301 94.9259 322.225 109.436C327.905 123.322 333.151 146.561 333.151 146.561L310.771 150.813L316.147 183.503L234.57 179.566Z" fill="url(#paint3_linear_1_324)"/>
<path d="M258.305 184.402C258.305 184.402 256.803 190.805 227.428 188.395C225.916 188.298 224.497 187.63 223.459 186.527C222.059 184.955 221.546 182.448 227.148 179.338C227.148 179.338 235.532 173.796 243.268 174.412C243.271 174.412 255.58 176.225 258.305 184.402Z" fill="white"/>
<path d="M239.454 189.467C235.873 189.467 231.85 189.284 227.386 188.919C225.742 188.809 224.201 188.079 223.073 186.878C222.222 185.93 221.879 184.913 222.057 183.857C222.337 182.183 223.959 180.514 226.88 178.879C227.423 178.523 235.589 173.267 243.313 173.88H243.35C245.628 174.272 247.852 174.933 249.976 175.848C254.587 177.836 257.639 180.734 258.8 184.232L258.847 184.371L258.813 184.515C258.768 184.709 258.25 186.443 254.042 187.795C250.586 188.919 245.7 189.467 239.454 189.467ZM242.055 174.889C234.929 174.889 227.517 179.723 227.441 179.775L227.404 179.796C224.805 181.24 223.312 182.704 223.089 184.03C222.969 184.756 223.225 185.479 223.851 186.178C224.802 187.178 226.094 187.782 227.47 187.871C253.408 189.996 257.278 185.196 257.741 184.378C256.342 180.448 252.533 178.104 249.559 176.82C247.523 175.947 245.393 175.313 243.211 174.931C242.828 174.902 242.44 174.889 242.061 174.889H242.055Z" fill="black"/>
<path d="M237.869 181.161C237.869 181.161 231.497 183.91 226.694 182.995C226.198 182.9 225.743 182.657 225.389 182.296C225.035 181.935 224.799 181.476 224.714 180.978C224.629 180.48 224.697 179.968 224.91 179.51C225.124 179.052 225.472 178.67 225.908 178.415L240.255 170.089L257.144 172.371L308.384 165.011L299.853 147.808L331.691 141.646C331.691 141.646 340.353 169.83 337.277 179.39C333.929 189.791 322.962 188.377 322.962 188.377L260.825 185.295C260.825 185.295 249.784 188.463 244.906 184.868C240.028 181.274 237.869 181.161 237.869 181.161Z" fill="white"/>
<path d="M324.19 188.958C323.766 188.962 323.342 188.942 322.92 188.901L260.885 185.825C259.761 186.136 249.449 188.867 244.594 185.301C240.541 182.311 238.411 181.792 237.931 181.706C236.949 182.112 231.156 184.389 226.587 183.519C225.986 183.404 225.434 183.108 225.006 182.671C224.578 182.233 224.294 181.676 224.192 181.072C224.089 180.469 224.174 179.849 224.434 179.295C224.694 178.741 225.117 178.279 225.646 177.973L240.148 169.557L257.144 171.852L307.592 164.605L299.077 147.434L332.056 141.051L332.189 141.497C332.546 142.655 340.864 169.947 337.775 179.555C335.035 188.075 327.279 188.958 324.19 188.958ZM260.765 184.766H260.851L323.019 187.855H323.04C323.47 187.91 333.617 189.079 336.79 179.228C339.57 170.581 332.422 145.896 331.338 142.246L300.639 148.188L309.185 165.423L257.157 172.898H257.086L240.373 170.639L226.181 178.876C225.836 179.076 225.561 179.377 225.392 179.737C225.223 180.098 225.168 180.502 225.234 180.894C225.301 181.287 225.486 181.65 225.765 181.935C226.044 182.219 226.403 182.412 226.794 182.487C231.384 183.362 237.599 180.713 237.662 180.684L237.774 180.637H237.897C237.992 180.637 240.279 180.802 245.233 184.447C249.847 187.853 260.589 184.824 260.692 184.795L260.765 184.766Z" fill="black"/>
<path d="M211.071 114.715L205.517 121.556L184.462 88.6326C184.462 88.6326 186.11 81.5769 185.51 75.3308C185.51 75.3308 186.579 70.8008 187.957 67.421C187.957 67.421 182.683 63.3233 179.238 74.4688L157.754 61.2849C157.754 61.2849 152.776 58.4029 150.745 61.7198C150.745 61.7198 145.89 58.4239 143.933 62.3591C143.933 62.3591 140.226 62.7626 141.575 66.5512C141.575 66.5512 140.155 70.0646 144.067 72.7422L162.729 87.0554C162.729 87.0554 168.493 91.3051 168.91 94.0377C168.91 94.0377 183.299 132.251 193.163 147.326C196.171 151.924 202.784 165.787 216.253 152.155L232.589 133.99L211.071 114.715Z" fill="white"/>
<path d="M205.488 158.527C205.159 158.527 204.83 158.508 204.503 158.472C199.053 157.851 195.595 152.244 193.525 148.893C193.237 148.427 192.967 147.986 192.723 147.617C182.94 132.657 168.564 94.5984 168.42 94.2185L168.394 94.1137C168.074 92.0465 163.971 88.6116 162.417 87.4719L143.758 73.1614C141.583 71.6654 140.967 69.9073 140.834 68.6943C140.752 67.9727 140.816 67.2421 141.022 66.5458C140.616 65.3013 140.676 64.2455 141.2 63.4018C141.858 62.3538 143.048 61.9949 143.595 61.8796C143.827 61.4281 144.151 61.0301 144.546 60.7111C144.94 60.3922 145.398 60.1592 145.888 60.0272C147.706 59.5478 149.721 60.512 150.604 61.0098C151.586 59.7757 153.137 59.3382 155.118 59.7391C156.133 59.9591 157.111 60.3244 158.021 60.8237L178.944 73.6618C180.328 69.5091 182.151 67.0489 184.376 66.3493C185.033 66.1519 185.726 66.1076 186.403 66.2197C187.079 66.3319 187.721 66.5976 188.28 66.9965L188.594 67.2402L188.445 67.6096C187.2 70.6619 186.197 74.7282 186.045 75.357C186.569 81.0581 185.303 87.2702 185.028 88.5225L205.574 120.652L211.019 113.947L233.336 133.935L216.646 152.501C212.688 156.504 208.944 158.527 205.488 158.527ZM169.421 93.8962C170.008 95.4525 184.038 132.41 193.601 147.035C193.863 147.415 194.125 147.861 194.418 148.345C196.383 151.534 199.677 156.871 204.621 157.434C208.008 157.819 211.799 155.922 215.887 151.793L231.843 134.024L211.144 115.472L205.464 122.449L205.074 121.847L183.896 88.7269L183.946 88.5121C183.962 88.4439 185.568 81.4668 184.978 75.3805V75.2941L184.999 75.2102C185.614 72.6402 186.384 70.1098 187.305 67.6332C186.906 67.4145 186.467 67.2787 186.014 67.2337C185.561 67.1886 185.104 67.2354 184.669 67.3712C182.717 67.9973 181.001 70.5152 179.736 74.6312L179.537 75.2757L157.479 61.7407C157.445 61.7198 152.925 59.1679 151.191 62.0027L150.905 62.4717L150.449 62.1626C150.428 62.1468 148.047 60.5565 146.155 61.0569C145.395 61.256 144.827 61.7617 144.41 62.6001L144.282 62.8621L143.996 62.8935C143.996 62.8935 142.665 63.0586 142.089 63.9861C141.722 64.5756 141.717 65.3826 142.073 66.3834L142.138 66.572L142.062 66.7555C142.015 66.8812 140.868 69.923 144.365 72.3177L144.386 72.3335L163.051 86.6466C163.644 87.0737 168.915 91.0351 169.421 93.8962Z" fill="black"/>
<path d="M151.041 61.3044L150.452 62.1715L162.072 70.0589L162.66 69.1918L151.041 61.3044Z" fill="black"/>
<path d="M144.243 61.9416L143.635 62.7952L159.075 73.7921L159.683 72.9385L144.243 61.9416Z" fill="black"/>
<path d="M141.867 66.1045L141.269 66.9655L155.525 76.8587L156.122 75.9977L141.867 66.1045Z" fill="black"/>
<path d="M262.759 67.4131L262.3 66.4699C267.802 63.787 269.076 58.8142 269.086 58.7618L270.105 59.0238C270.037 59.2282 268.675 64.518 262.759 67.4131Z" fill="black"/>
<path d="M264.721 64.29L260.005 65.5791C259.682 65.6673 259.382 65.826 259.127 66.0438C258.872 66.2617 258.668 66.5333 258.531 66.8391C258.393 67.1449 258.325 67.4774 258.331 67.8126C258.338 68.1479 258.418 68.4776 258.567 68.7781C258.709 69.0658 258.912 69.32 259.16 69.524C259.408 69.7279 259.696 69.877 260.006 69.9614C260.316 70.0458 260.64 70.0636 260.958 70.0137C261.275 69.9637 261.578 69.8471 261.847 69.6715C263.39 68.6809 264.759 67.4414 265.898 66.0035C266.034 65.8254 266.112 65.6096 266.121 65.3856C266.131 65.1615 266.071 64.94 265.95 64.7511C265.823 64.5515 265.634 64.3987 265.412 64.3155C265.191 64.2323 264.948 64.2234 264.721 64.29Z" fill="white"/>
<path d="M260.587 70.565C260.121 70.5642 259.664 70.4473 259.255 70.2248C258.847 70.0023 258.5 69.6813 258.247 69.2909C257.994 68.9004 257.843 68.453 257.807 67.9892C257.77 67.5254 257.851 67.0599 258.04 66.6349C258.208 66.258 258.458 65.9233 258.772 65.655C259.085 65.3867 259.455 65.1916 259.853 65.0839L264.569 63.7948C264.897 63.7047 265.245 63.7198 265.563 63.838C265.882 63.9562 266.155 64.1715 266.345 64.4535C266.535 64.7356 266.631 65.0701 266.62 65.4098C266.61 65.7495 266.492 66.0772 266.285 66.3467C265.109 67.8305 263.692 69.1066 262.093 70.1222C261.643 70.4096 261.121 70.5632 260.587 70.565ZM264.857 64.8009L260.141 66.09C259.896 66.1553 259.669 66.2731 259.474 66.4352C259.279 66.5973 259.122 66.7999 259.013 67.0289C258.904 67.2579 258.847 67.5078 258.844 67.7612C258.841 68.0147 258.894 68.2657 258.998 68.4968C259.103 68.7279 259.256 68.9335 259.447 69.0995C259.639 69.2655 259.864 69.3877 260.108 69.4579C260.352 69.528 260.607 69.5443 260.858 69.5057C261.109 69.467 261.348 69.3743 261.559 69.234C263.054 68.2781 264.381 67.0832 265.489 65.697C265.56 65.6008 265.599 65.485 265.601 65.3655C265.603 65.2461 265.568 65.129 265.501 65.0303C265.434 64.9316 265.337 64.8563 265.225 64.8147C265.113 64.7732 264.991 64.7674 264.876 64.7983L264.857 64.8009Z" fill="black"/>
<path d="M267.567 48.7272C267.567 48.7272 267.87 33.0411 256.953 29.8631C256.953 29.8631 261.543 26.6614 266.343 28.2098C266.343 28.2098 272.56 30.0438 274.756 45.9709L267.567 48.7272Z" fill="white"/>
<path d="M267.027 49.4948L267.042 48.7088C267.042 48.5568 267.21 33.387 256.806 30.353L255.758 30.0464L256.657 29.4202C256.853 29.284 261.519 26.0902 266.508 27.6989C266.77 27.7723 273.058 29.8185 275.28 45.887L275.337 46.2984L267.027 49.4948ZM258.205 29.732C262.279 31.3407 265.258 34.9721 266.851 40.3379C267.575 42.8202 267.986 45.3832 268.075 47.9673L274.172 45.6277C273.053 37.8803 270.957 33.6935 269.382 31.5398C267.669 29.1949 266.199 28.7102 266.183 28.705C262.945 27.6596 259.748 28.9329 258.205 29.732Z" fill="black"/>
<path d="M272.56 61.1041C276.963 61.1041 280.533 57.5346 280.533 53.1314C280.533 48.7282 276.963 45.1587 272.56 45.1587C268.157 45.1587 264.588 48.7282 264.588 53.1314C264.588 57.5346 268.157 61.1041 272.56 61.1041Z" fill="white"/>
<path d="M272.56 61.6254C270.88 61.6249 269.237 61.1262 267.84 60.1922C266.443 59.2583 265.355 57.9311 264.712 56.3785C264.069 54.8259 263.902 53.1175 264.23 51.4695C264.558 49.8215 265.367 48.3078 266.556 47.1197C267.744 45.9317 269.258 45.1227 270.906 44.7951C272.554 44.4675 274.263 44.6359 275.815 45.279C277.367 45.9222 278.694 47.0113 279.628 48.4085C280.561 49.8057 281.06 51.4484 281.06 53.1287C281.057 55.3818 280.16 57.5418 278.567 59.1347C276.973 60.7276 274.813 61.6234 272.56 61.6254ZM272.56 45.68C271.087 45.6805 269.647 46.1178 268.423 46.9366C267.198 47.7554 266.244 48.9189 265.68 50.28C265.117 51.6412 264.97 53.1388 265.258 54.5835C265.545 56.0282 266.255 57.3552 267.297 58.3967C268.339 59.4381 269.666 60.1473 271.111 60.4345C272.555 60.7217 274.053 60.574 275.414 60.0102C276.775 59.4463 277.938 58.4916 278.756 57.2667C279.575 56.0419 280.012 54.6018 280.012 53.1287C280.009 51.1534 279.224 49.2596 277.827 47.8631C276.43 46.4665 274.536 45.6814 272.56 45.68Z" fill="black"/>
<path d="M273.747 57.0561C276.046 57.0561 277.91 55.1922 277.91 52.8929C277.91 50.5937 276.046 48.7297 273.747 48.7297C271.448 48.7297 269.584 50.5937 269.584 52.8929C269.584 55.1922 271.448 57.0561 273.747 57.0561Z" fill="url(#paint4_linear_1_324)"/>
<path d="M233.111 119.812L232.063 119.824L232.272 138.789L233.32 138.777L233.111 119.812Z" fill="black"/>
<path d="M203.609 117.628L202.7 118.15L207.871 127.166L208.781 126.644L203.609 117.628Z" fill="black"/>
<path d="M295.363 137.431L294.421 137.892L300.066 149.425L301.008 148.964L295.363 137.431Z" fill="black"/>
<path d="M168.506 81.3331H48.8555C45.7864 81.3331 43.2984 83.8211 43.2984 86.8901V166.104C43.2984 169.173 45.7864 171.661 48.8555 171.661H168.506C171.575 171.661 174.063 169.173 174.063 166.104V86.8901C174.063 83.8211 171.575 81.3331 168.506 81.3331Z" fill="black"/>
<path d="M168.509 172.185H48.8528C47.2409 172.183 45.6956 171.541 44.5561 170.401C43.4165 169.261 42.7757 167.716 42.7744 166.104V86.8875C42.7757 85.2756 43.4165 83.7301 44.5561 82.59C45.6956 81.45 47.2409 80.8085 48.8528 80.8065H168.509C170.121 80.8085 171.666 81.45 172.806 82.59C173.945 83.7301 174.586 85.2756 174.587 86.8875V166.104C174.586 167.716 173.945 169.261 172.806 170.401C171.666 171.541 170.121 172.183 168.509 172.185ZM48.8528 81.8545C47.5188 81.8565 46.2401 82.3876 45.2971 83.3311C44.3541 84.2746 43.8237 85.5536 43.8224 86.8875V166.104C43.8237 167.438 44.3541 168.717 45.2971 169.66C46.2401 170.604 47.5188 171.135 48.8528 171.137H168.509C169.843 171.135 171.122 170.604 172.065 169.66C173.008 168.717 173.538 167.438 173.539 166.104V86.8875C173.538 85.5536 173.008 84.2746 172.065 83.3311C171.122 82.3876 169.843 81.8565 168.509 81.8545H48.8528Z" fill="black"/>
<path d="M162.428 81.3331H42.777C39.7079 81.3331 37.2199 83.8211 37.2199 86.8901V166.104C37.2199 169.173 39.7079 171.661 42.777 171.661H162.428C165.497 171.661 167.985 169.173 167.985 166.104V86.8901C167.985 83.8211 165.497 81.3331 162.428 81.3331Z" fill="white"/>
<path d="M162.43 172.185H42.777C41.1646 172.183 39.6187 171.542 38.4786 170.402C37.3384 169.262 36.6973 167.716 36.6959 166.104V86.8876C36.6973 85.2752 37.3384 83.7293 38.4786 82.5892C39.6187 81.449 41.1646 80.8079 42.777 80.8065H162.43C164.042 80.8086 165.588 81.45 166.727 82.5901C167.867 83.7301 168.508 85.2757 168.509 86.8876V166.104C168.508 167.716 167.867 169.261 166.727 170.401C165.588 171.541 164.042 172.183 162.43 172.185ZM42.777 81.8545C41.4426 81.8559 40.1632 82.3866 39.2196 83.3302C38.276 84.2738 37.7453 85.5532 37.7439 86.8876V166.104C37.7453 167.438 38.276 168.718 39.2196 169.661C40.1632 170.605 41.4426 171.135 42.777 171.137H162.43C163.764 171.135 165.043 170.604 165.986 169.66C166.929 168.717 167.46 167.438 167.461 166.104V86.8876C167.46 85.5536 166.929 84.2746 165.986 83.3311C165.043 82.3876 163.764 81.8566 162.43 81.8545H42.777Z" fill="black"/>
<path d="M161.946 87.1102H160.898V160.633H161.946V87.1102Z" fill="black"/>
<path d="M110.352 145.573L102.602 185.492H117.309C117.795 185.492 118.261 185.685 118.605 186.029C118.949 186.373 119.143 186.839 119.143 187.326C119.143 187.812 118.949 188.279 118.605 188.623C118.261 188.967 117.795 189.16 117.309 189.16H71.833C71.3218 189.16 70.8178 189.039 70.3621 188.807C69.9063 188.576 69.5117 188.24 69.2102 187.827C68.9087 187.414 68.7088 186.936 68.6269 186.432C68.545 185.927 68.5833 185.41 68.7387 184.923L81.9619 143.603C82.2175 142.802 82.7209 142.103 83.3996 141.608C84.0782 141.112 84.8969 140.844 85.7374 140.844H106.459C107.045 140.844 107.623 140.974 108.153 141.224C108.682 141.473 109.15 141.838 109.522 142.29C109.894 142.742 110.162 143.271 110.305 143.838C110.449 144.406 110.465 144.999 110.352 145.573Z" fill="white"/>
<path d="M117.309 189.705H71.833C71.2392 189.705 70.6537 189.565 70.1243 189.296C69.5949 189.027 69.1364 188.637 68.7863 188.158C68.4362 187.678 68.2043 187.123 68.1095 186.536C68.0147 185.95 68.0598 185.35 68.2409 184.784L81.4537 143.451C81.7413 142.543 82.3111 141.751 83.0801 141.189C83.8491 140.628 84.7772 140.326 85.7295 140.328H106.451C107.113 140.328 107.767 140.475 108.366 140.757C108.964 141.04 109.493 141.451 109.914 141.962C110.335 142.473 110.638 143.07 110.801 143.712C110.965 144.353 110.984 145.023 110.858 145.673L103.231 184.973H117.301C117.926 184.973 118.526 185.222 118.968 185.664C119.41 186.106 119.659 186.706 119.659 187.331C119.659 187.956 119.41 188.556 118.968 188.998C118.526 189.441 117.926 189.689 117.301 189.689L117.309 189.705ZM85.7374 141.376C85.0077 141.375 84.2966 141.606 83.7072 142.036C83.1178 142.466 82.6809 143.073 82.4597 143.768L69.2391 185.091C69.1077 185.499 69.0748 185.933 69.1429 186.356C69.2111 186.78 69.3785 187.181 69.6315 187.528C69.8844 187.874 70.2157 188.156 70.5983 188.35C70.9809 188.544 71.404 188.645 71.833 188.644H117.309C117.656 188.644 117.989 188.506 118.235 188.26C118.481 188.014 118.619 187.681 118.619 187.334C118.619 186.986 118.481 186.653 118.235 186.407C117.989 186.162 117.656 186.024 117.309 186.024H101.968L109.828 145.482C109.926 144.983 109.912 144.47 109.787 143.977C109.663 143.485 109.431 143.027 109.108 142.635C108.785 142.243 108.379 141.928 107.92 141.712C107.46 141.495 106.959 141.383 106.451 141.384L85.7374 141.376Z" fill="black"/>
<path d="M105.371 147.111L97.4902 183.999L98.5151 184.218L106.396 147.33L105.371 147.111Z" fill="black"/>
<path d="M48.8214 166.376C49.882 166.376 50.7418 165.516 50.7418 164.456C50.7418 163.395 49.882 162.535 48.8214 162.535C47.7607 162.535 46.9009 163.395 46.9009 164.456C46.9009 165.516 47.7607 166.376 48.8214 166.376Z" fill="white"/>
<path d="M48.824 166.911C48.3404 166.911 47.8675 166.768 47.4652 166.5C47.0629 166.232 46.7491 165.85 46.5637 165.403C46.3783 164.957 46.3295 164.465 46.4235 163.991C46.5176 163.517 46.7502 163.081 47.0919 162.739C47.4337 162.396 47.8693 162.163 48.3435 162.069C48.8178 161.974 49.3094 162.023 49.7562 162.208C50.203 162.392 50.585 162.706 50.8537 163.108C51.1224 163.51 51.2658 163.983 51.2658 164.466C51.2651 165.114 51.0077 165.735 50.55 166.193C50.0923 166.651 49.4716 166.909 48.824 166.911ZM48.824 163.07C48.5477 163.069 48.2774 163.151 48.0474 163.304C47.8174 163.457 47.638 163.675 47.532 163.93C47.4259 164.185 47.3978 164.466 47.4514 164.737C47.505 165.008 47.6378 165.257 47.833 165.453C48.0282 165.648 48.277 165.782 48.548 165.836C48.8189 165.89 49.0998 165.862 49.3552 165.757C49.6105 165.651 49.8287 165.472 49.9823 165.242C50.1359 165.013 50.2178 164.743 50.2178 164.466C50.2192 164.282 50.1842 164.1 50.1148 163.929C50.0454 163.759 49.943 163.604 49.8135 163.473C49.6839 163.342 49.5298 163.238 49.36 163.167C49.1902 163.096 49.008 163.06 48.824 163.059V163.07Z" fill="black"/>
<path d="M56.5032 166.376C57.5639 166.376 58.4237 165.516 58.4237 164.456C58.4237 163.395 57.5639 162.535 56.5032 162.535C55.4426 162.535 54.5828 163.395 54.5828 164.456C54.5828 165.516 55.4426 166.376 56.5032 166.376Z" fill="white"/>
<path d="M56.5033 166.911C56.0198 166.911 55.5472 166.767 55.1452 166.499C54.7432 166.23 54.4299 165.848 54.2449 165.402C54.0598 164.955 54.0114 164.463 54.1057 163.989C54.2001 163.515 54.4329 163.08 54.7748 162.738C55.1166 162.396 55.5522 162.163 56.0264 162.069C56.5005 161.974 56.992 162.023 57.4387 162.208C57.8854 162.393 58.2672 162.706 58.5358 163.108C58.8044 163.51 58.9477 163.983 58.9477 164.466C58.9463 165.114 58.6884 165.735 58.2302 166.193C57.7721 166.651 57.1511 166.909 56.5033 166.911ZM56.5033 163.07C56.2271 163.07 55.9571 163.152 55.7274 163.305C55.4978 163.459 55.3188 163.677 55.2131 163.932C55.1074 164.187 55.0797 164.468 55.1336 164.739C55.1875 165.01 55.3205 165.258 55.5158 165.454C55.7111 165.649 55.9599 165.782 56.2308 165.836C56.5017 165.89 56.7825 165.862 57.0377 165.756C57.2928 165.651 57.5109 165.472 57.6644 165.242C57.8178 165.012 57.8997 164.742 57.8997 164.466C57.9011 164.282 57.866 164.099 57.7964 163.929C57.7269 163.758 57.6242 163.603 57.4944 163.472C57.3646 163.341 57.2102 163.237 57.0401 163.167C56.87 163.096 56.6875 163.059 56.5033 163.059V163.07Z" fill="black"/>
<path d="M158.396 180.865H154.5V183.228H158.396V180.865Z" fill="white"/>
<path d="M158.922 183.75H153.978V180.344H158.922V183.75ZM155.026 182.702H157.874V181.392H155.026V182.702Z" fill="black"/>
<path d="M165.878 180.865H161.982V183.228H165.878V180.865Z" fill="white"/>
<path d="M166.402 183.75H161.458V180.344H166.402V183.75ZM162.506 182.702H165.354V181.392H162.506V182.702Z" fill="black"/>
<path d="M173.401 180.865H169.505V183.228H173.401V180.865Z" fill="white"/>
<path d="M173.94 183.75H168.981V180.344H173.94V183.75ZM170.042 182.702H172.892V181.392H170.029L170.042 182.702Z" fill="black"/>
<path d="M180.92 180.865H177.024V183.228H180.92V180.865Z" fill="white"/>
<path d="M181.447 183.75H176.503V180.344H181.447V183.75ZM177.551 182.702H180.399V181.392H177.551V182.702Z" fill="black"/>
<path d="M188.45 180.865H184.554V183.228H188.45V180.865Z" fill="white"/>
<path d="M188.974 183.75H184.03V180.344H188.974V183.75ZM185.078 182.702H187.926V181.392H185.078V182.702Z" fill="black"/>
<path d="M195.982 180.865H192.086V183.228H195.982V180.865Z" fill="white"/>
<path d="M196.506 183.75H191.562V180.344H196.506V183.75ZM192.61 182.702H195.458V181.392H192.61V182.702Z" fill="black"/>
<path d="M203.541 180.865H199.645V183.228H203.541V180.865Z" fill="white"/>
<path d="M204.07 183.75H199.121V180.344H204.07V183.75ZM200.175 182.702H203.022V181.392H200.169L200.175 182.702Z" fill="black"/>
<path d="M211.061 180.865H207.165V183.228H211.061V180.865Z" fill="white"/>
<path d="M211.585 183.75H206.641V180.344H211.585V183.75ZM207.689 182.702H210.537V181.392H207.689V182.702Z" fill="black"/>
<path d="M116.483 223C112.661 223 108.996 221.482 106.294 218.779C103.591 216.077 102.073 212.412 102.073 208.59V202.543C102.073 201.153 101.521 199.82 100.538 198.838C99.5557 197.855 98.2229 197.303 96.8332 197.303H56.257C54.1477 197.301 52.1255 196.462 50.6338 194.971C49.1421 193.48 48.3028 191.458 48.3 189.348V164.458H49.348V189.348C49.3501 191.18 50.0787 192.936 51.374 194.231C52.6694 195.525 54.4255 196.253 56.257 196.255H96.8515C98.5192 196.255 100.119 196.917 101.298 198.097C102.477 199.276 103.14 200.875 103.14 202.543V208.603C103.248 212.073 104.703 215.364 107.196 217.78C109.689 220.196 113.024 221.547 116.495 221.547C119.966 221.547 123.302 220.196 125.794 217.78C128.287 215.364 129.742 212.073 129.851 208.603V188.866C129.851 187.824 130.265 186.824 131.002 186.087C131.739 185.35 132.738 184.936 133.781 184.936H151.67V185.984H133.757C132.993 185.984 132.26 186.288 131.719 186.829C131.179 187.369 130.875 188.102 130.875 188.866V208.598C130.873 212.415 129.356 216.075 126.658 218.776C123.96 221.476 120.301 222.995 116.483 223Z" fill="black"/>
<path d="M216.45 182.447H151.657V188.937H216.45V182.447Z" fill="white"/>
<path d="M216.974 189.461H151.146V181.923H216.987L216.974 189.461ZM152.181 188.413H215.926V182.971H152.194L152.181 188.413Z" fill="black"/>
<defs>
<linearGradient id="paint0_linear_1_324" x1="66.0794" y1="39.067" x2="66.0794" y2="44.0713" gradientUnits="userSpaceOnUse">
<stop stop-color="#4796E3"/>
<stop offset="1" stop-color="#C36781"/>
</linearGradient>
<linearGradient id="paint1_linear_1_324" x1="76.583" y1="39.067" x2="76.583" y2="44.0713" gradientUnits="userSpaceOnUse">
<stop stop-color="#4796E3"/>
<stop offset="1" stop-color="#C36781"/>
</linearGradient>
<linearGradient id="paint2_linear_1_324" x1="87.2098" y1="39.067" x2="87.2098" y2="44.0713" gradientUnits="userSpaceOnUse">
<stop stop-color="#4796E3"/>
<stop offset="1" stop-color="#C36781"/>
</linearGradient>
<linearGradient id="paint3_linear_1_324" x1="271.833" y1="78.577" x2="271.833" y2="183.503" gradientUnits="userSpaceOnUse">
<stop stop-color="#4796E3"/>
<stop offset="1" stop-color="#C36781"/>
</linearGradient>
<linearGradient id="paint4_linear_1_324" x1="273.747" y1="48.7297" x2="273.747" y2="57.0561" gradientUnits="userSpaceOnUse">
<stop stop-color="#4796E3"/>
<stop offset="1" stop-color="#C36781"/>
</linearGradient>
</defs>
</svg>
