<svg width="16" height="16" viewBox="0 0 16 16" fill="none" xmlns="http://www.w3.org/2000/svg">
<path d="M8 16C12.4183 16 16 12.4183 16 8C16 3.58172 12.4183 0 8 0C3.58172 0 0 3.58172 0 8C0 12.4183 3.58172 16 8 16Z" fill="#93959D"/>
<path d="M4.79647 11.1822C4.87916 11.2661 4.9777 11.3326 5.08634 11.3781C5.19499 11.4235 5.31159 11.4469 5.42936 11.4469C5.54713 11.4469 5.66372 11.4235 5.77237 11.3781C5.88102 11.3326 5.97955 11.2661 6.06225 11.1822L7.97869 9.26575L9.89513 11.1822C10.063 11.3501 10.2906 11.4444 10.528 11.4444C10.7654 11.4444 10.9931 11.3501 11.1609 11.1822C11.3288 11.0143 11.4231 10.7867 11.4231 10.5493C11.4231 10.3119 11.3288 10.0843 11.1609 9.91642L9.24447 7.99998L11.1609 6.08353C11.244 6.00042 11.31 5.90175 11.3549 5.79316C11.3999 5.68457 11.4231 5.56818 11.4231 5.45064C11.4231 5.3331 11.3999 5.21672 11.3549 5.10813C11.31 4.99953 11.244 4.90087 11.1609 4.81775C11.0778 4.73464 10.9791 4.66871 10.8705 4.62373C10.7619 4.57875 10.6456 4.5556 10.528 4.5556C10.4105 4.5556 10.2941 4.57875 10.1855 4.62373C10.0769 4.66871 9.97825 4.73464 9.89513 4.81775L7.97869 6.7342L6.06225 4.81775C5.97913 4.73464 5.88046 4.66871 5.77187 4.62373C5.66328 4.57875 5.54689 4.5556 5.42936 4.5556C5.31182 4.5556 5.19543 4.57875 5.08684 4.62373C4.97825 4.66871 4.87958 4.73464 4.79647 4.81775C4.71336 4.90087 4.64743 4.99953 4.60245 5.10813C4.55747 5.21672 4.53432 5.3331 4.53432 5.45064C4.53432 5.56818 4.55747 5.68457 4.60245 5.79316C4.64743 5.90175 4.71336 6.00042 4.79647 6.08353L6.71291 7.99998L4.79647 9.91642C4.71262 9.99912 4.64603 10.0976 4.60059 10.2063C4.55514 10.3149 4.53174 10.4315 4.53174 10.5493C4.53174 10.6671 4.55514 10.7837 4.60059 10.8923C4.64603 11.001 4.71262 11.0995 4.79647 11.1822Z" fill="#FFF7ED"/>
</svg>
