<svg width="16" height="16" viewBox="0 0 16 16" fill="none" xmlns="http://www.w3.org/2000/svg">
<path d="M8 6.10352e-05C3.58187 6.10352e-05 0 3.58068 0 8.00006C0 12.4194 3.58187 16.0001 8 16.0001C12.4181 16.0001 16 12.4172 16 8.00006C16 3.58287 12.4181 6.10352e-05 8 6.10352e-05Z" fill="#40BD5E"/>
<path d="M12.5619 6.67436L7.75343 11.724C7.62239 11.8615 7.46495 11.9711 7.29054 12.0463C7.11613 12.1215 6.92835 12.1607 6.73843 12.1615H6.73218C6.54332 12.1616 6.35637 12.1237 6.18244 12.0501C6.00851 11.9765 5.85114 11.8687 5.71968 11.7331L3.16812 9.10499C3.03628 8.97265 2.93204 8.81545 2.86145 8.6425C2.79085 8.46956 2.75531 8.28432 2.75689 8.09752C2.75846 7.91073 2.79712 7.72612 2.87061 7.55438C2.94411 7.38265 3.05099 7.22723 3.18503 7.09714C3.31908 6.96704 3.47763 6.86486 3.65148 6.79654C3.82534 6.72821 4.01103 6.69509 4.19778 6.69911C4.38454 6.70313 4.56864 6.74419 4.73939 6.81993C4.91015 6.89567 5.06416 7.00456 5.19249 7.1403L6.72218 8.71592L10.5187 4.72905C10.6459 4.59268 10.7989 4.48288 10.9688 4.40599C11.1387 4.32911 11.3221 4.28667 11.5085 4.28114C11.6949 4.2756 11.8805 4.30708 12.0547 4.37374C12.2288 4.44041 12.388 4.54094 12.5231 4.66953C12.6581 4.79811 12.7663 4.95219 12.8415 5.12287C12.9166 5.29354 12.9571 5.47741 12.9607 5.66385C12.9643 5.85029 12.9309 6.03559 12.8625 6.20904C12.794 6.38249 12.6918 6.54065 12.5619 6.67436Z" fill="white"/>
</svg>
