<svg width="24" height="29" viewBox="0 0 24 29" fill="none" xmlns="http://www.w3.org/2000/svg">
<path fill-rule="evenodd" clip-rule="evenodd" d="M5.65091 0H18.3105C19.8534 0 20.6241 1.50667e-07 21.2471 0.235445C21.8345 0.461338 22.366 0.831154 22.8003 1.31615C23.2346 1.80115 23.5599 2.38827 23.7511 3.03189C23.9614 3.72811 23.9614 4.589 23.9614 6.31222V26.5402C23.9614 27.7796 22.6502 28.4382 21.8209 27.6149C21.5882 27.3816 21.2831 27.2521 20.9663 27.2521C20.6495 27.2521 20.3443 27.3816 20.1116 27.6149L19.4687 28.2533C19.061 28.6623 18.5263 28.8895 17.9711 28.8895C17.4159 28.8895 16.8811 28.6623 16.4735 28.2533C16.0659 27.8443 15.5311 27.6171 14.9759 27.6171C14.4207 27.6171 13.8859 27.8443 13.4783 28.2533C13.0707 28.6623 12.5359 28.8895 11.9807 28.8895C11.4255 28.8895 10.8908 28.6623 10.4831 28.2533C10.0755 27.8443 9.54073 27.6171 8.98554 27.6171C8.43035 27.6171 7.89557 27.8443 7.48795 28.2533C7.08033 28.6623 6.54555 28.8895 5.99036 28.8895C5.43517 28.8895 4.90039 28.6623 4.49277 28.2533L3.8498 27.6149C3.61713 27.3816 3.31197 27.2521 2.99518 27.2521C2.67839 27.2521 2.37323 27.3816 2.14055 27.6149C1.31122 28.4382 0 27.7796 0 26.5402V6.31222C0 4.589 -1.98363e-08 3.72667 0.210328 3.03333C0.609686 1.71456 1.53486 0.680334 2.7143 0.235445C3.3373 1.50667e-07 4.10806 0 5.65091 0ZM16.0542 9.38889C16.1416 9.28266 16.2088 9.1588 16.2521 9.02436C16.2954 8.88993 16.3139 8.74756 16.3065 8.60538C16.2991 8.46321 16.2659 8.32401 16.2089 8.19573C16.1519 8.06746 16.0722 7.95262 15.9743 7.85778C15.8764 7.76293 15.7622 7.68994 15.6383 7.64297C15.5145 7.59599 15.3832 7.57596 15.2522 7.58401C15.1212 7.59206 14.9929 7.62803 14.8747 7.68987C14.7565 7.75172 14.6506 7.83822 14.5632 7.94445L10.555 12.818L9.39688 11.4111C9.21988 11.1989 8.97267 11.0713 8.70925 11.0562C8.44583 11.0411 8.18761 11.1397 7.991 11.3306C7.79439 11.5214 7.67537 11.7889 7.65993 12.0746C7.64449 12.3604 7.73389 12.6411 7.90861 12.8556L9.80955 15.1667C9.9032 15.2805 10.018 15.3716 10.1463 15.434C10.2747 15.4963 10.4137 15.5286 10.5543 15.5286C10.695 15.5286 10.834 15.4963 10.9624 15.434C11.0907 15.3716 11.2055 15.2805 11.2991 15.1667L16.0542 9.38889ZM5.99036 18.4167C5.72557 18.4167 5.47162 18.5308 5.28439 18.734C5.09715 18.9371 4.99197 19.2127 4.99197 19.5C4.99197 19.7873 5.09715 20.0629 5.28439 20.266C5.47162 20.4692 5.72557 20.5833 5.99036 20.5833H17.9711C18.2359 20.5833 18.4898 20.4692 18.6771 20.266C18.8643 20.0629 18.9695 19.7873 18.9695 19.5C18.9695 19.2127 18.8643 18.9371 18.6771 18.734C18.4898 18.5308 18.2359 18.4167 17.9711 18.4167H5.99036Z" fill="#367CFF"/>
</svg>
