<svg width="27" height="27" viewBox="0 0 27 27" fill="none" xmlns="http://www.w3.org/2000/svg">
<path d="M24.7502 1.49951H16.5752C16.3763 1.49951 16.1855 1.57853 16.0449 1.71918C15.9042 1.85983 15.8252 2.0506 15.8252 2.24951C15.8252 2.44842 15.9042 2.63919 16.0449 2.77984C16.1855 2.92049 16.3763 2.99951 16.5752 2.99951H22.9727L16.3577 9.74951C16.2888 9.81993 16.2344 9.90324 16.1976 9.99469C16.1609 10.0861 16.1425 10.1839 16.1435 10.2825C16.1446 10.381 16.165 10.4784 16.2037 10.569C16.2424 10.6597 16.2985 10.7418 16.3689 10.8108C16.4394 10.8797 16.5227 10.9341 16.6141 10.9709C16.7056 11.0076 16.8034 11.026 16.9019 11.0249C17.0004 11.0239 17.0978 11.0034 17.1885 10.9648C17.2791 10.9261 17.3613 10.8699 17.4302 10.7995L24.0002 4.09451V10.4245C24.0002 10.6234 24.0792 10.8142 24.2199 10.9548C24.3605 11.0955 24.5513 11.1745 24.7502 11.1745C24.9491 11.1745 25.1399 11.0955 25.2805 10.9548C25.4212 10.8142 25.5002 10.6234 25.5002 10.4245V2.24951C25.5002 2.0506 25.4212 1.85983 25.2805 1.71918C25.1399 1.57853 24.9491 1.49951 24.7502 1.49951Z" fill="#FF5E2C"/>
<path d="M9.09496 8.47881L9.09609 8.47946L14.8869 11.8027L8.99979 15.1723L3.08959 11.7941L8.84453 8.47905L8.84496 8.47881C8.88297 8.45686 8.92608 8.44531 8.96996 8.44531C9.01385 8.44531 9.05696 8.45686 9.09496 8.47881Z" stroke="#0C0C0C"/>
<path d="M2 20.7999H2.00001V20.7979V13.8251L7.75001 17.1346V24.2336L2.125 21.0174C2.12476 21.0173 2.12452 21.0172 2.12428 21.017C2.08645 20.995 2.05506 20.9635 2.03325 20.9255L1.60127 21.1738L2.03325 20.9255C2.0113 20.8873 1.99983 20.844 2 20.7999Z" stroke="black"/>
<path d="M16 20.7958L16 20.7978C16.0002 20.8419 15.9887 20.8852 15.9668 20.9234C15.9449 20.9613 15.9135 20.9929 15.8757 21.0149C15.8754 21.015 15.8752 21.0152 15.875 21.0153L10.25 24.2315V17.1183L16 13.828L16 20.7958ZM9.75 25.0933L10.25 24.8074L9.75 24.5174V25.0933Z" stroke="black"/>
</svg>
