<svg width="61" height="61" viewBox="0 0 61 61" fill="none" xmlns="http://www.w3.org/2000/svg">
<circle cx="30.5" cy="30.5" r="30.5" fill="white"/>
<path d="M48.092 28.0592H46.6468V27.9848H30.4998V35.1612H40.6392C39.16 39.3389 35.1851 42.3377 30.4998 42.3377C24.555 42.3377 19.7351 37.5178 19.7351 31.573C19.7351 25.6282 24.555 20.8083 30.4998 20.8083C33.2439 20.8083 35.7404 21.8435 37.6413 23.5345L42.7159 18.4598C39.5116 15.4735 35.2255 13.6318 30.4998 13.6318C20.5918 13.6318 12.5586 21.665 12.5586 31.573C12.5586 41.481 20.5918 49.5142 30.4998 49.5142C40.4078 49.5142 48.4409 41.481 48.4409 31.573C48.4409 30.3701 48.3172 29.1958 48.092 28.0592Z" fill="#FFC107"/>
<path d="M14.627 23.2223L20.5215 27.5452C22.1165 23.5964 25.9792 20.8083 30.4995 20.8083C33.2436 20.8083 35.7401 21.8435 37.641 23.5345L42.7157 18.4598C39.5114 15.4735 35.2252 13.6318 30.4995 13.6318C23.6083 13.6318 17.6321 17.5224 14.627 23.2223Z" fill="#FF3D00"/>
<path d="M30.4995 49.5145C35.1337 49.5145 39.3445 47.741 42.5281 44.8569L36.9753 40.1581C35.1135 41.574 32.8385 42.3398 30.4995 42.338C25.833 42.338 21.8707 39.3624 20.378 35.21L14.5273 39.7177C17.4966 45.5279 23.5266 49.5145 30.4995 49.5145Z" fill="#4CAF50"/>
<path d="M48.0922 28.0593H46.6471V27.9849H30.5V35.1613H40.6395C39.9319 37.1496 38.6573 38.887 36.9732 40.1588L36.9759 40.1571L42.5287 44.8558C42.1357 45.2129 48.4412 40.5437 48.4412 31.5731C48.4412 30.3701 48.3174 29.1959 48.0922 28.0593Z" fill="#1976D2"/>
</svg>
