<svg width="62" height="62" viewBox="0 0 62 62" fill="none" xmlns="http://www.w3.org/2000/svg">
<path d="M60.9956 24.9862H58.5317V24.8593H31.0023V37.0946H48.2892C45.7672 44.217 38.9904 49.3298 31.0023 49.3298C20.8669 49.3298 12.6494 41.1123 12.6494 30.9769C12.6494 20.8415 20.8669 12.624 31.0023 12.624C35.6808 12.624 39.9371 14.3889 43.1779 17.2718L51.8298 8.61997C46.3668 3.52855 39.0592 0.388672 31.0023 0.388672C14.1099 0.388672 0.414062 14.0846 0.414062 30.9769C0.414062 47.8693 14.1099 61.5651 31.0023 61.5651C47.8946 61.5651 61.5905 47.8693 61.5905 30.9769C61.5905 28.926 61.3795 26.924 60.9956 24.9862Z" fill="#FFC107"/>
<path d="M3.94141 16.7396L13.9912 24.1098C16.7105 17.3774 23.2961 12.624 31.0028 12.624C35.6813 12.624 39.9376 14.3889 43.1785 17.2718L51.8303 8.61997C46.3673 3.52855 39.0598 0.388672 31.0028 0.388672C19.2539 0.388672 9.06494 7.02173 3.94141 16.7396Z" fill="#FF3D00"/>
<path d="M31.0046 61.5652C38.9056 61.5652 46.0846 58.5416 51.5125 53.6245L42.0454 45.6135C38.8712 48.0275 34.9925 49.3331 31.0046 49.33C23.0486 49.33 16.2932 44.2569 13.7483 37.1772L3.77344 44.8625C8.83579 54.7685 19.1165 61.5652 31.0046 61.5652Z" fill="#4CAF50"/>
<path d="M60.9972 24.9863H58.5333V24.8594H31.0039V37.0947H48.2908C47.0845 40.4845 44.9114 43.4466 42.0401 45.615L42.0447 45.612L51.5118 53.623C50.8419 54.2317 61.5921 46.2711 61.5921 30.977C61.5921 28.9261 61.3811 26.9241 60.9972 24.9863Z" fill="#1976D2"/>
</svg>
