<svg width="19" height="24" viewBox="0 0 19 24" fill="none" xmlns="http://www.w3.org/2000/svg">
<path fill-rule="evenodd" clip-rule="evenodd" d="M17.3277 10.2348C16.74 9.94393 16.0513 10.1006 15.7861 10.5828C15.7861 10.5828 14.1346 14.1979 13.1732 14.0442C12.6548 13.9598 12.2404 13.4715 12.0551 12.5297V2.66869C12.0551 2.02676 11.3936 1.50688 10.5783 1.50688C9.76461 1.50688 9.04131 2.02827 9.04131 2.66869V10.4548H7.53442V1.16181C7.53442 0.519875 6.8729 0 6.05767 0C5.24396 0 4.52065 0.521382 4.52065 1.16181V10.4548H3.01377V4.17557C3.01377 3.53364 2.35074 3.01377 1.53551 3.01377C0.721798 3.01377 0 3.53515 0 4.17557V16.856C0 20.7498 2.6054 23.97 8.55609 23.97C15.9142 23.97 17.9063 11.6316 17.9063 11.6316C18.1685 11.1494 17.9108 10.5226 17.3277 10.2348Z" fill="#985844"/>
</svg>
