<svg width="230" height="78" viewBox="0 0 230 78" fill="none" xmlns="http://www.w3.org/2000/svg">
<path d="M71 35.5C71 55.1061 55.1061 71 35.5 71C15.8939 71 0 55.1061 0 35.5C0 15.8939 15.8939 0 35.5 0C55.1061 0 71 15.8939 71 35.5Z" fill="#00CC83"/>
<path d="M102 5H112V40H102V27.1H93.5V40H83.5V5H93.5V17.4H102V5Z" fill="#3A3A3C"/>
<path d="M135.046 39.95L129.496 28.95H126.996V39.95H116.996V4.95H130.996C134.829 4.95 137.996 6.08333 140.496 8.35C142.996 10.5833 144.246 13.55 144.246 17.25C144.246 19.3167 143.763 21.1833 142.796 22.85C141.863 24.5167 140.546 25.8667 138.846 26.9L145.746 39.95H135.046ZM126.996 14.15V20.65H130.796C131.863 20.6833 132.696 20.4167 133.296 19.85C133.929 19.2833 134.246 18.4833 134.246 17.45C134.246 16.4167 133.929 15.6167 133.296 15.05C132.696 14.45 131.863 14.15 130.796 14.15H126.996Z" fill="#3A3A3C"/>
<path d="M157.784 39.1C156.684 40.2 155.334 40.75 153.734 40.75C152.134 40.75 150.768 40.2 149.634 39.1C148.534 37.9667 147.984 36.6 147.984 35C147.984 33.4 148.534 32.05 149.634 30.95C150.768 29.8167 152.134 29.25 153.734 29.25C155.334 29.25 156.684 29.8167 157.784 30.95C158.918 32.05 159.484 33.4 159.484 35C159.484 36.6 158.918 37.9667 157.784 39.1Z" fill="#3A3A3C"/>
<path d="M98.28 55.2V72H96.6V57.744L90.72 67.584H90.48L84.6 57.744V72H82.92V55.2H85.008L90.6 64.56L96.192 55.2H98.28Z" fill="#3A3A3C"/>
<path d="M112.195 60H113.779V72H112.195V69.648C111.091 71.408 109.475 72.288 107.347 72.288C105.635 72.288 104.171 71.68 102.955 70.464C101.755 69.248 101.155 67.76 101.155 66C101.155 64.24 101.755 62.752 102.955 61.536C104.171 60.32 105.635 59.712 107.347 59.712C109.475 59.712 111.091 60.592 112.195 62.352V60ZM104.107 69.384C105.019 70.296 106.139 70.752 107.467 70.752C108.795 70.752 109.915 70.296 110.827 69.384C111.739 68.456 112.195 67.328 112.195 66C112.195 64.672 111.739 63.552 110.827 62.64C109.915 61.712 108.795 61.248 107.467 61.248C106.139 61.248 105.019 61.712 104.107 62.64C103.195 63.552 102.739 64.672 102.739 66C102.739 67.328 103.195 68.456 104.107 69.384Z" fill="#3A3A3C"/>
<path d="M122.749 59.712C124.205 59.712 125.349 60.16 126.181 61.056C127.029 61.936 127.453 63.128 127.453 64.632V72H125.869V64.632C125.869 63.56 125.581 62.728 125.005 62.136C124.445 61.544 123.645 61.248 122.605 61.248C121.453 61.248 120.517 61.616 119.797 62.352C119.077 63.072 118.717 64.192 118.717 65.712V72H117.133V60H118.717V61.872C119.613 60.432 120.957 59.712 122.749 59.712Z" fill="#3A3A3C"/>
<path d="M140.836 60H142.42V72H140.836V69.648C139.732 71.408 138.116 72.288 135.988 72.288C134.276 72.288 132.812 71.68 131.596 70.464C130.396 69.248 129.796 67.76 129.796 66C129.796 64.24 130.396 62.752 131.596 61.536C132.812 60.32 134.276 59.712 135.988 59.712C138.116 59.712 139.732 60.592 140.836 62.352V60ZM132.748 69.384C133.66 70.296 134.78 70.752 136.108 70.752C137.436 70.752 138.556 70.296 139.468 69.384C140.38 68.456 140.836 67.328 140.836 66C140.836 64.672 140.38 63.552 139.468 62.64C138.556 61.712 137.436 61.248 136.108 61.248C134.78 61.248 133.66 61.712 132.748 62.64C131.836 63.552 131.38 64.672 131.38 66C131.38 67.328 131.836 68.456 132.748 69.384Z" fill="#3A3A3C"/>
<path d="M156.094 60H157.678V71.52C157.678 73.248 157.086 74.608 155.902 75.6C154.718 76.592 153.302 77.088 151.654 77.088C148.838 77.088 146.942 76.112 145.966 74.16L147.358 73.368C148.078 74.824 149.51 75.552 151.654 75.552C153.03 75.552 154.11 75.184 154.894 74.448C155.694 73.728 156.094 72.752 156.094 71.52V69.648C154.99 71.408 153.374 72.288 151.246 72.288C149.534 72.288 148.07 71.68 146.854 70.464C145.654 69.248 145.054 67.76 145.054 66C145.054 64.24 145.654 62.752 146.854 61.536C148.07 60.32 149.534 59.712 151.246 59.712C153.374 59.712 154.99 60.592 156.094 62.352V60ZM148.006 69.384C148.918 70.296 150.038 70.752 151.366 70.752C152.694 70.752 153.814 70.296 154.726 69.384C155.638 68.456 156.094 67.328 156.094 66C156.094 64.672 155.638 63.552 154.726 62.64C153.814 61.712 152.694 61.248 151.366 61.248C150.038 61.248 148.918 61.712 148.006 62.64C147.094 63.552 146.638 64.672 146.638 66C146.638 67.328 147.094 68.456 148.006 69.384Z" fill="#3A3A3C"/>
<path d="M166.576 59.712C168.352 59.712 169.784 60.344 170.872 61.608C171.976 62.856 172.528 64.336 172.528 66.048C172.528 66.224 172.512 66.472 172.48 66.792H161.944C162.104 68.008 162.616 68.976 163.48 69.696C164.36 70.4 165.44 70.752 166.72 70.752C167.632 70.752 168.416 70.568 169.072 70.2C169.744 69.816 170.248 69.32 170.584 68.712L171.976 69.528C171.448 70.376 170.728 71.048 169.816 71.544C168.904 72.04 167.864 72.288 166.696 72.288C164.808 72.288 163.272 71.696 162.088 70.512C160.904 69.328 160.312 67.824 160.312 66C160.312 64.208 160.896 62.712 162.064 61.512C163.232 60.312 164.736 59.712 166.576 59.712ZM166.576 61.248C165.328 61.248 164.28 61.624 163.432 62.376C162.6 63.112 162.104 64.072 161.944 65.256H170.896C170.736 63.992 170.248 63.008 169.432 62.304C168.616 61.6 167.664 61.248 166.576 61.248Z" fill="#3A3A3C"/>
<path d="M187.839 59.712C189.183 59.712 190.263 60.144 191.079 61.008C191.911 61.872 192.327 63.04 192.327 64.512V72H190.743V64.512C190.743 63.472 190.471 62.672 189.927 62.112C189.399 61.536 188.695 61.248 187.815 61.248C186.823 61.248 186.015 61.584 185.391 62.256C184.783 62.912 184.479 63.944 184.479 65.352V72H182.895V64.512C182.895 63.456 182.639 62.648 182.127 62.088C181.631 61.528 180.951 61.248 180.087 61.248C179.127 61.248 178.311 61.584 177.639 62.256C176.967 62.928 176.631 63.96 176.631 65.352V72H175.047V60H176.631V61.752C177.495 60.392 178.719 59.712 180.303 59.712C182.031 59.712 183.247 60.44 183.951 61.896C184.815 60.44 186.111 59.712 187.839 59.712Z" fill="#3A3A3C"/>
<path d="M200.935 59.712C202.711 59.712 204.143 60.344 205.231 61.608C206.335 62.856 206.887 64.336 206.887 66.048C206.887 66.224 206.871 66.472 206.839 66.792H196.303C196.463 68.008 196.975 68.976 197.839 69.696C198.719 70.4 199.799 70.752 201.079 70.752C201.991 70.752 202.775 70.568 203.431 70.2C204.103 69.816 204.607 69.32 204.943 68.712L206.335 69.528C205.807 70.376 205.087 71.048 204.175 71.544C203.263 72.04 202.223 72.288 201.055 72.288C199.167 72.288 197.631 71.696 196.447 70.512C195.263 69.328 194.671 67.824 194.671 66C194.671 64.208 195.255 62.712 196.423 61.512C197.591 60.312 199.095 59.712 200.935 59.712ZM200.935 61.248C199.687 61.248 198.639 61.624 197.791 62.376C196.959 63.112 196.463 64.072 196.303 65.256H205.255C205.095 63.992 204.607 63.008 203.791 62.304C202.975 61.6 202.023 61.248 200.935 61.248Z" fill="#3A3A3C"/>
<path d="M215.023 59.712C216.479 59.712 217.623 60.16 218.455 61.056C219.303 61.936 219.727 63.128 219.727 64.632V72H218.143V64.632C218.143 63.56 217.855 62.728 217.279 62.136C216.719 61.544 215.919 61.248 214.879 61.248C213.727 61.248 212.791 61.616 212.071 62.352C211.351 63.072 210.991 64.192 210.991 65.712V72H209.407V60H210.991V61.872C211.887 60.432 213.231 59.712 215.023 59.712Z" fill="#3A3A3C"/>
<path d="M229.149 61.536H225.693V68.808C225.693 69.464 225.821 69.936 226.077 70.224C226.333 70.496 226.717 70.64 227.229 70.656C227.741 70.656 228.381 70.64 229.149 70.608V72C227.469 72.256 226.205 72.136 225.357 71.64C224.525 71.144 224.109 70.2 224.109 68.808V61.536H221.589V60H224.109V57.12L225.693 56.64V60H229.149V61.536Z" fill="#3A3A3C"/>
<path d="M54 35C54 32.5049 53.5085 30.0342 52.5537 27.729C51.5989 25.4238 50.1993 23.3293 48.435 21.565C46.6707 19.8007 44.5762 18.4011 42.271 17.4463C39.9658 16.4914 37.4951 16 35 16C32.5049 16 30.0342 16.4914 27.729 17.4463C25.4238 18.4011 23.3293 19.8007 21.565 21.565C19.8007 23.3293 18.4011 25.4238 17.4463 27.729C16.4914 30.0342 16 32.5049 16 35H21.7917C21.7917 33.2655 22.1334 31.5479 22.7972 29.9454C23.4609 28.3429 24.4338 26.8869 25.6603 25.6603C26.8868 24.4338 28.3429 23.4609 29.9454 22.7972C31.5479 22.1334 33.2655 21.7917 35 21.7917C36.7345 21.7917 38.4521 22.1334 40.0546 22.7972C41.6571 23.4609 43.1131 24.4338 44.3396 25.6603C45.5662 26.8868 46.5391 28.3429 47.2028 29.9454C47.8666 31.5479 48.2083 33.2655 48.2083 35H54Z" fill="white"/>
<path d="M16 38C16 40.4951 16.4914 42.9658 17.4463 45.271C18.4011 47.5762 19.8007 49.6707 21.565 51.435C23.3293 53.1993 25.4238 54.5989 27.729 55.5537C30.0342 56.5085 32.5049 57 35 57C37.4951 57 39.9658 56.5085 42.271 55.5537C44.5762 54.5989 46.6707 53.1993 48.435 51.435C50.1993 49.6707 51.5989 47.5762 52.5537 45.271C53.5085 42.9658 54 40.4951 54 38H48.2083C48.2083 39.7345 47.8666 41.4521 47.2028 43.0546C46.5391 44.6571 45.5662 46.1131 44.3397 47.3396C43.1132 48.5662 41.6571 49.5391 40.0546 50.2028C38.4521 50.8666 36.7345 51.2083 35 51.2083C33.2655 51.2083 31.5479 50.8666 29.9454 50.2028C28.3429 49.5391 26.8868 48.5662 25.6603 47.3396C24.4338 46.1131 23.4609 44.6571 22.7972 43.0546C22.1334 41.4521 21.7917 39.7345 21.7917 38H16Z" fill="white"/>
<path d="M45 36.5C45 41.7467 40.5228 46 35 46C29.4772 46 25 41.7467 25 36.5C25 31.2533 29.4772 27 35 27C40.5228 27 45 31.2533 45 36.5Z" fill="white"/>
</svg>
