<svg width="765" height="532" viewBox="0 0 765 532" fill="none" xmlns="http://www.w3.org/2000/svg">
<path d="M697.73 57.0078H545.506C537.756 57.0078 531.473 63.2907 531.473 71.0411V288.717C531.473 296.468 537.756 302.751 545.506 302.751H697.73C705.48 302.751 711.763 296.468 711.763 288.717V71.0411C711.763 63.2907 705.48 57.0078 697.73 57.0078Z" stroke="#FF5E2C" stroke-opacity="0.16" stroke-width="4.83" stroke-miterlimit="10"/>
<path d="M691.157 82.3242H553.919C550.044 82.3242 546.902 85.4657 546.902 89.3409V118.529C546.902 122.404 550.044 125.546 553.919 125.546H691.157C695.032 125.546 698.173 122.404 698.173 118.529V89.3409C698.173 85.4657 695.032 82.3242 691.157 82.3242Z" stroke="#FF5E2C" stroke-opacity="0.16" stroke-width="4.83" stroke-miterlimit="10"/>
<path d="M621.618 100.531C624.087 100.531 626.088 98.53 626.088 96.0615C626.088 93.593 624.087 91.5918 621.618 91.5918C619.15 91.5918 617.148 93.593 617.148 96.0615C617.148 98.53 619.15 100.531 621.618 100.531Z" fill="#FF5E2C" fill-opacity="0.2"/>
<path d="M609.125 116.287C609.125 112.974 610.441 109.797 612.783 107.455C615.125 105.113 618.302 103.797 621.615 103.797C624.928 103.797 628.105 105.113 630.447 107.455C632.789 109.797 634.105 112.974 634.105 116.287H609.125Z" fill="#FF5E2C" fill-opacity="0.2"/>
<path d="M622.526 171.871C617.765 171.873 613.11 173.286 609.151 175.933C605.193 178.579 602.109 182.34 600.287 186.74C598.466 191.14 597.991 195.981 598.921 200.651C599.851 205.321 602.144 209.61 605.512 212.977C608.88 216.343 613.17 218.636 617.841 219.564C622.511 220.493 627.352 220.015 631.751 218.192C636.15 216.369 639.909 213.284 642.555 209.324C645.2 205.365 646.612 200.71 646.612 195.949C646.612 192.786 645.989 189.654 644.779 186.733C643.568 183.81 641.794 181.156 639.557 178.92C637.32 176.684 634.665 174.911 631.743 173.701C628.821 172.492 625.689 171.869 622.526 171.871ZM622.526 214.216C621.622 214.171 620.769 213.78 620.145 213.125C619.521 212.47 619.173 211.6 619.173 210.695C619.173 209.789 619.521 208.919 620.145 208.263C620.769 207.608 621.622 207.217 622.526 207.174C623.43 207.217 624.283 207.608 624.907 208.263C625.531 208.919 625.879 209.789 625.879 210.695C625.879 211.6 625.531 212.47 624.907 213.125C624.283 213.78 623.43 214.171 622.526 214.216ZM626.971 187.136C626.228 192.356 625.604 197.838 624.044 202.915C623.673 204.138 621.379 204.138 621.008 202.915C619.909 199.098 619.064 195.212 618.478 191.285C617.997 188.426 616.328 183.796 617.921 181.021C619.33 178.491 623.294 178.238 625.596 179.537C628.421 181.131 627.308 184.538 626.971 187.136Z" fill="#FF5E2C" fill-opacity="0.2"/>
<path d="M359.076 105.795C350.634 103.277 341.636 103.32 333.218 105.917C324.801 108.514 317.343 113.549 311.787 120.385C306.231 127.222 302.827 135.551 302.007 144.322C301.185 153.092 302.982 161.909 307.173 169.658C311.363 177.407 317.756 183.739 325.545 187.854C333.334 191.969 342.168 193.681 350.93 192.776C359.692 191.869 367.989 188.385 374.771 182.764C381.553 177.143 386.516 169.636 389.032 161.194C390.703 155.589 391.254 149.71 390.653 143.893C390.052 138.075 388.311 132.433 385.529 127.289C382.747 122.145 378.98 117.599 374.441 113.911C369.902 110.222 364.681 107.464 359.076 105.795ZM336.702 180.852C335.094 180.321 333.755 179.184 332.971 177.682C332.187 176.181 332.02 174.433 332.504 172.81C332.988 171.186 334.085 169.816 335.563 168.988C337.042 168.161 338.784 167.943 340.421 168.379C341.263 168.604 342.05 168.995 342.738 169.529C343.426 170.064 343.999 170.731 344.424 171.49C344.849 172.25 345.119 173.089 345.214 173.954C345.31 174.819 345.231 175.695 344.982 176.53C344.733 177.364 344.319 178.141 343.765 178.813C343.211 179.485 342.528 180.039 341.755 180.442C340.984 180.845 340.139 181.089 339.271 181.159C338.402 181.229 337.529 181.126 336.702 180.852ZM358.882 135.194C354.809 144.057 350.794 153.444 345.388 161.616C344.09 163.589 340.016 162.375 340.008 160.013C340.077 152.675 340.64 145.349 341.695 138.086C342.352 132.782 341.838 123.69 346.131 119.609C349.942 115.957 357.094 117.526 360.51 121.034C364.617 125.318 360.855 130.775 358.882 135.194Z" fill="#FF522C"/>
<path d="M234.681 204.406C231.593 207.549 229.506 211.537 228.684 215.866C227.862 220.195 228.342 224.67 230.064 228.727C231.785 232.783 234.67 236.238 238.356 238.654C242.04 241.07 246.358 242.34 250.765 242.302C255.171 242.264 259.467 240.922 263.111 238.442C266.753 235.963 269.579 232.46 271.23 228.375C272.882 224.289 273.286 219.806 272.39 215.492C271.494 211.177 269.339 207.226 266.197 204.136C261.981 199.993 256.294 197.694 250.384 197.745C244.473 197.796 238.826 200.192 234.681 204.406ZM262.63 231.874C262.33 232.179 261.974 232.422 261.58 232.589C261.186 232.757 260.764 232.844 260.336 232.848C259.908 232.852 259.484 232.772 259.088 232.611C258.691 232.452 258.33 232.215 258.025 231.916C257.72 231.616 257.477 231.26 257.31 230.866C257.142 230.473 257.054 230.049 257.05 229.622C257.047 229.194 257.127 228.77 257.287 228.374C257.447 227.977 257.684 227.616 257.983 227.311C258.588 226.695 259.413 226.345 260.277 226.336C261.141 226.329 261.971 226.664 262.588 227.269C263.204 227.874 263.554 228.699 263.563 229.563C263.57 230.426 263.235 231.257 262.63 231.874ZM247.644 211.389C250.604 215.268 253.817 219.24 256.153 223.558C256.718 224.595 255.234 226.088 254.188 225.565C250.967 223.807 247.868 221.835 244.911 219.662C242.71 218.135 238.578 216.229 237.776 213.371C237.051 210.84 239.463 208.024 241.774 207.357C244.616 206.531 246.142 209.474 247.644 211.389Z" fill="#FF522C"/>
<path d="M562.035 144.84H679.657" stroke="#FF5E2C" stroke-opacity="0.16" stroke-width="4.83" stroke-miterlimit="10"/>
<path d="M562.035 156.42H679.657" stroke="#FF5E2C" stroke-opacity="0.16" stroke-width="4.83" stroke-miterlimit="10"/>
<path d="M562.035 230.971H679.657" stroke="#FF5E2C" stroke-opacity="0.16" stroke-width="4.83" stroke-miterlimit="10"/>
<path d="M589.352 241.928H652.333" stroke="#FF5E2C" stroke-opacity="0.16" stroke-width="4.83" stroke-miterlimit="10"/>
<path d="M711.77 215.773C722.143 228.812 732.01 244.97 740.932 264.882C795.261 386.205 727.355 447.778 727.355 447.778" stroke="#9F9F9F" stroke-width="4.83" stroke-miterlimit="10"/>
<path d="M144.324 311.976C144.324 311.976 63.7083 220.532 164.235 175.253C264.762 129.974 284.665 123.682 277.412 76.5816C270.16 29.4806 327.17 -18.4805 416.826 13.2125C506.482 44.9054 508.279 104.631 501.92 150.804C498.31 177.125 513.246 183.45 531.437 182.126" stroke="#9F9F9F" stroke-width="4.83" stroke-miterlimit="10"/>
<path d="M706.083 487.24C705.878 492.288 704.572 497.23 702.254 501.72C702.163 501.944 702.056 502.16 701.934 502.37C697.869 509.672 692.182 515.945 685.311 520.704L685.067 520.873C678.865 525.021 671.889 527.876 664.557 529.264H742.6C742.6 529.264 732.159 380.371 636.203 307.928C543.342 237.829 456.402 271.613 450.886 273.873C452.595 278.697 453.359 283.805 453.138 288.919C453.138 288.919 460.121 292.553 461.285 305.566C462.449 318.579 464.877 354.759 441.525 361.573C441.525 361.573 420.559 361.058 415.019 353.013C409.478 344.967 408.145 346.603 405.97 348.644C404.283 350.188 394.104 355.703 389.406 358.233C390 358.262 390.589 358.344 391.169 358.478C391.169 358.478 393.859 381.181 426.775 416.761C427.89 417.936 428.943 419.169 429.929 420.455C434.899 424.801 440.485 429.237 446.686 433.763L484.249 461.248C485.097 461.969 486.102 462.48 487.184 462.741C489.286 463.27 491.482 463.291 493.593 462.8C497.962 461.956 527.791 458.912 547.095 456.989C547.534 456.989 547.998 456.905 548.428 456.854L550.958 456.61C551.363 456.61 551.801 456.525 552.155 456.5L554.432 456.281C555.546 456.171 556.549 456.061 557.477 455.986L560.007 455.741C562.242 455.522 563.566 455.387 563.675 455.387C568.274 455.256 572.859 454.811 577.397 454.054C581.74 453.211 585.704 451.853 586.733 449.601C586.927 449.127 587 448.61 586.943 448.1C586.711 446.667 586.112 445.32 585.206 444.187C581.242 438.866 572.033 434.303 571.358 433.974C571.339 433.967 571.319 433.967 571.299 433.974L571.114 433.839L516.296 391.25H516.237C516.237 391.25 524.494 303.171 599.729 324.845C599.729 324.845 600.083 325.09 600.732 325.629C603.667 327.89 612.902 335.379 626.479 349.37C626.834 349.749 627.213 350.129 627.593 350.533C629.035 352.001 630.452 353.527 631.86 355.02C641.39 365.208 652.665 378.187 665.105 394.371L665.189 394.455C679.442 413.009 689.714 430.01 696.393 445.056V445.106C703.62 461.459 706.665 475.467 706.066 486.641C706.085 486.84 706.091 487.04 706.083 487.24ZM479.164 335.851C476.937 310.188 489.427 300.894 490.127 300.38C472.366 332.511 505.307 381.763 506.463 383.669C505.518 382.876 481.39 361.505 479.164 335.851Z" fill="#353642"/>
<path d="M431.992 330.817C431.068 331.496 430.105 332.121 429.108 332.689L423.322 322.569C436.664 315.746 440.409 303.72 434.539 297.117C432.898 295.31 430.782 294.001 428.433 293.338C422.53 291.551 418.44 294.182 415.665 297.715C413.401 300.787 411.74 304.261 410.774 307.954L407.957 275.468L407.737 272.938C407.737 272.938 401.598 269.893 384.967 272.609C368.336 275.325 365.275 284.509 358.132 280.435C350.989 276.362 346.941 276.691 346.941 276.691C344.908 284.154 339.469 284.154 339.469 284.154C338.18 283.998 336.914 283.691 335.699 283.235C327.982 276.143 325.891 263.838 325.891 263.838C333.987 262.835 334.611 255.042 333.683 248.658C338.17 251.323 344.495 251.508 353.375 245.807C378.853 229.514 404.98 238.335 414.164 239.693C418.262 240.292 422.749 238.85 426.468 237.163C426.949 238.024 427.618 238.765 428.425 239.33C434.624 243.649 439.737 249.348 443.36 255.978C467.269 300.667 441.058 324.399 431.992 330.817Z" fill="#FF522C"/>
<path d="M336.548 529.28H346.162C350.275 529.275 354.216 527.639 357.124 524.732C360.031 521.824 361.667 517.883 361.672 513.77V503.009C361.672 502.028 361.478 501.057 361.102 500.151C360.727 499.245 360.176 498.421 359.482 497.728C358.788 497.035 357.965 496.486 357.058 496.111C356.152 495.736 355.18 495.545 354.2 495.546H296.7C296.703 497.836 296.252 500.105 295.377 502.221C294.502 504.338 293.216 506.26 291.596 507.88C289.976 509.499 288.052 510.782 285.936 511.658C283.819 512.532 281.55 512.981 279.26 512.978H71.4844C71.4869 517.301 73.2048 521.446 76.2619 524.502C79.3182 527.559 83.4633 529.277 87.7863 529.28H369.464C369.832 529.28 370.197 529.209 370.537 529.069C370.877 528.928 371.186 528.722 371.447 528.461C371.707 528.202 371.913 527.892 372.053 527.552C372.193 527.212 372.265 526.847 372.264 526.48V509.014C372.264 505.62 373.612 502.367 376.011 499.967C378.41 497.568 381.665 496.22 385.058 496.22C388.45 496.22 391.705 497.568 394.104 499.967C396.504 502.367 397.851 505.62 397.851 509.014V526.48C397.85 526.846 397.921 527.211 398.061 527.551C398.201 527.89 398.406 528.198 398.666 528.459C398.925 528.719 399.233 528.925 399.572 529.066C399.911 529.207 400.275 529.28 400.643 529.28H742.603C742.603 529.28 732.162 380.353 636.206 307.918C543.345 237.819 456.405 271.603 450.889 273.863L450.619 273.965" stroke="black" stroke-width="4.83" stroke-miterlimit="10"/>
<path d="M354.741 310.313C354.738 311.249 354.457 312.164 353.935 312.941C353.412 313.718 352.672 314.323 351.805 314.679C350.939 315.036 349.988 315.128 349.07 314.943C348.151 314.759 347.309 314.307 346.647 313.645C345.985 312.982 345.535 312.138 345.353 311.22C345.17 310.301 345.264 309.35 345.622 308.485C345.98 307.62 346.586 306.88 347.363 306.359C348.142 305.838 349.057 305.558 349.993 305.557C350.36 305.558 350.725 305.604 351.081 305.692C350.59 305.847 350.162 306.155 349.858 306.57C349.554 306.986 349.392 307.488 349.394 308.002C349.392 308.325 349.453 308.646 349.576 308.945C349.697 309.244 349.877 309.516 350.104 309.746C350.331 309.975 350.602 310.158 350.9 310.283C351.197 310.408 351.517 310.473 351.84 310.473C352.43 310.462 352.999 310.244 353.445 309.857C353.892 309.471 354.19 308.939 354.286 308.357C354.577 308.969 354.732 309.636 354.741 310.313Z" fill="black"/>
<path d="M387.638 311.637C387.64 312.578 387.362 313.499 386.84 314.282C386.319 315.065 385.577 315.676 384.707 316.037C383.839 316.399 382.882 316.494 381.959 316.311C381.035 316.129 380.187 315.676 379.521 315.012C378.855 314.347 378.401 313.5 378.217 312.576C378.033 311.654 378.127 310.697 378.486 309.827C378.846 308.957 379.456 308.215 380.238 307.692C381.02 307.168 381.94 306.889 382.881 306.889C383.108 306.887 383.335 306.913 383.556 306.965C383.135 307.159 382.779 307.469 382.53 307.859C382.279 308.249 382.147 308.703 382.148 309.166C382.119 309.815 382.348 310.449 382.786 310.928C383.225 311.407 383.835 311.692 384.484 311.721C385.132 311.751 385.766 311.52 386.245 311.083C386.724 310.644 387.01 310.034 387.039 309.385C387.429 310.072 387.634 310.847 387.638 311.637Z" fill="black"/>
<path d="M425.579 230.482C425.031 234.176 425.714 237.415 428.43 239.338C434.629 243.656 439.742 249.355 443.365 255.985C471.887 309.276 429.104 332.73 429.104 332.73L423.319 322.61C439.975 314.109 441.679 297.461 428.43 293.379C415.181 289.297 410.77 307.994 410.77 307.994L407.734 272.953C407.734 272.953 401.594 269.909 384.964 272.624C368.333 275.34 365.271 284.524 358.128 280.451C350.985 276.377 346.937 276.706 346.937 276.706C344.905 284.17 339.465 284.17 339.465 284.17C323.526 282.137 319.781 260.084 319.781 260.084C327.869 259.072 328.493 251.279 327.574 244.904C332.052 247.569 338.385 247.763 347.266 242.053C372.743 225.76 398.87 234.59 408.046 235.947C414.388 236.867 421.666 232.987 425.579 230.482Z" stroke="black" stroke-width="4.83" stroke-linecap="round" stroke-linejoin="round"/>
<path d="M440.29 494.753L446.59 492.223L451.313 504.966L450.571 528.09L444.186 529.246L419.957 528.2C419.957 528.2 421.644 514.099 426.797 507.394C431.949 500.69 440.29 494.753 440.29 494.753Z" fill="#FF522C"/>
<path d="M329.973 291.963C329.973 291.963 336.424 280.384 350.002 281.59" stroke="black" stroke-width="4.83" stroke-miterlimit="10"/>
<path d="M376.59 281.588C376.59 281.588 392.107 278.105 397.539 286.732" stroke="black" stroke-width="4.83" stroke-miterlimit="10"/>
<path d="M400.632 334.011C400.632 334.011 391.355 328.639 384.566 337.672" stroke="black" stroke-width="4.83" stroke-miterlimit="10"/>
<path d="M342.014 283.445C342.014 283.445 335.411 361.126 384.654 359.692C393.087 359.448 401.47 353.907 409.482 344.993" stroke="black" stroke-width="4.83" stroke-miterlimit="10"/>
<path d="M429.105 352.058L409.48 344.991C409.48 344.991 414.347 360.542 438.449 361.732C462.552 362.921 470.64 307.606 452.93 285.35" stroke="black" stroke-width="4.83" stroke-linejoin="round"/>
<path d="M505.836 507.891C505.836 507.891 487.847 522.489 500.067 529.278" stroke="black" stroke-width="4.83" stroke-miterlimit="10"/>
<path d="M491.918 494.305C491.918 494.305 460.714 511.964 487.508 529.278" stroke="black" stroke-width="4.83" stroke-miterlimit="10"/>
<path d="M481.396 480.73C481.396 480.73 439.979 500.127 471.891 529.282" stroke="black" stroke-width="4.83" stroke-miterlimit="10"/>
<path d="M655.562 529.279C655.562 529.279 705.809 529.279 706.483 480.728C707.158 432.176 609.052 310.262 545.564 293.302C482.077 276.343 479.353 322.82 479.353 324.725C479.353 326.631 475.626 346.653 491.919 368.014C504.502 384.527 560.078 425.75 584.738 443.663C585.644 444.322 586.328 445.241 586.699 446.298C587.069 447.355 587.109 448.499 586.813 449.58C586.518 450.66 585.9 451.625 585.043 452.346C584.185 453.066 583.129 453.509 582.014 453.614L472.952 464.089H472.885C471.856 464.274 433.366 471.375 421.643 483.435C421.643 483.435 415.073 488.301 418.472 495.773C421.871 503.245 432.311 500.783 432.598 500.504" stroke="black" stroke-width="4.83" stroke-miterlimit="10"/>
<path opacity="0.26" d="M382.89 320.458C390.389 320.458 396.468 314.38 396.468 306.881C396.468 299.382 390.389 293.303 382.89 293.303C375.391 293.303 369.312 299.382 369.312 306.881C369.312 314.38 375.391 320.458 382.89 320.458Z" fill="white"/>
<path opacity="0.26" d="M348.433 319.117C355.932 319.117 362.011 313.038 362.011 305.539C362.011 298.04 355.932 291.961 348.433 291.961C340.934 291.961 334.855 298.04 334.855 305.539C334.855 313.038 340.934 319.117 348.433 319.117Z" fill="white"/>
<path d="M465.799 492.613C461.026 491.28 453.225 490.083 445.188 492.664C441.258 493.929 437.632 495.994 434.536 498.727C433.862 499.318 433.212 499.916 432.588 500.515C431.243 501.834 429.973 503.227 428.785 504.69C428.629 504.883 428.406 505.012 428.161 505.052C425.167 505.466 405.458 508.586 405.559 518.546C405.652 527.494 415.451 528.961 418.825 529.197C418.964 529.21 419.104 529.194 419.236 529.15C419.369 529.105 419.491 529.035 419.595 528.941C419.699 528.847 419.782 528.734 419.839 528.606C419.898 528.48 419.928 528.341 419.93 528.202C419.93 525.014 420.655 515.021 428.54 504.968" stroke="black" stroke-width="4.83" stroke-miterlimit="10"/>
<path d="M288.222 422.318C290.533 440.948 276.052 449.373 260.223 450.621" stroke="black" stroke-width="4.83" stroke-miterlimit="10"/>
<path d="M237.218 446.733C231.182 443.472 226.293 438.436 223.212 432.306C220.132 426.176 219.01 419.248 219.997 412.459C222.527 394.538 237.707 380.791 252.567 372.071C283.77 353.762 354.089 367.011 365.904 369.71C374.962 371.785 382.535 364.7 385.605 361.276C385.735 361.131 385.904 361.026 386.092 360.975C386.28 360.922 386.479 360.926 386.666 360.983C386.852 361.041 387.018 361.151 387.144 361.3C387.269 361.449 387.35 361.631 387.376 361.825C393.861 399.775 469.18 451.287 486.604 462.815" stroke="black" stroke-width="4.83" stroke-miterlimit="10"/>
<path d="M307.225 409.434L282.287 424.909C280.801 425.835 279.137 426.438 277.404 426.681C275.67 426.924 273.905 426.8 272.221 426.319C270.538 425.837 268.975 425.008 267.632 423.886C266.289 422.762 265.196 421.37 264.425 419.799C263.034 416.976 262.758 413.733 263.652 410.717C264.546 407.699 266.545 405.13 269.249 403.522L307.199 380.912" stroke="black" stroke-width="4.83" stroke-miterlimit="10"/>
<path d="M382.89 320.458C390.389 320.458 396.468 314.38 396.468 306.881C396.468 299.382 390.389 293.303 382.89 293.303C375.391 293.303 369.312 299.382 369.312 306.881C369.312 314.38 375.391 320.458 382.89 320.458Z" stroke="black" stroke-width="4.83" stroke-miterlimit="10"/>
<path d="M348.432 317.085C354.809 317.085 359.978 311.916 359.978 305.54C359.978 299.163 354.809 293.994 348.432 293.994C342.056 293.994 336.887 299.163 336.887 305.54C336.887 311.916 342.056 317.085 348.432 317.085Z" stroke="white" stroke-width="4.83" stroke-miterlimit="10"/>
<path d="M348.433 319.117C355.932 319.117 362.011 313.038 362.011 305.539C362.011 298.04 355.932 291.961 348.433 291.961C340.934 291.961 334.855 298.04 334.855 305.539C334.855 313.038 340.934 319.117 348.433 319.117Z" stroke="black" stroke-width="4.83" stroke-miterlimit="10"/>
<path d="M369.379 305.541H362.008" stroke="black" stroke-width="4.83" stroke-miterlimit="10"/>
<path d="M369.381 324.727H364.523C364.218 324.727 363.916 324.661 363.639 324.531C363.362 324.401 363.118 324.211 362.923 323.976C362.727 323.74 362.587 323.466 362.511 323.17C362.435 322.873 362.425 322.565 362.482 322.265L365.695 305.541" stroke="black" stroke-width="4.83" stroke-miterlimit="10"/>
<path d="M271.916 371.068C271.916 371.068 254.602 374.804 248.496 400.948C244.785 416.82 239.691 437.069 236.267 450.528C235.828 452.255 235.789 454.059 236.153 455.803C236.517 457.547 237.275 459.185 238.368 460.591C239.462 461.998 240.862 463.137 242.462 463.919C244.062 464.703 245.82 465.11 247.602 465.11C250.262 465.11 252.843 464.204 254.919 462.54C256.995 460.877 258.442 458.555 259.021 455.96L266.265 423.457" stroke="black" stroke-width="4.83" stroke-miterlimit="10"/>
<path d="M287.746 432.179C287.746 432.179 305.92 421.317 341.72 432.179C377.52 443.041 418.676 450.412 432.254 421.604" stroke="black" stroke-width="4.83" stroke-miterlimit="10"/>
<path d="M445.195 492.662C445.195 492.662 457.846 507.1 450.154 529.28" stroke="black" stroke-width="4.83" stroke-miterlimit="10"/>
<path d="M27.1749 313.121H227.048C233.486 313.113 239.74 315.271 244.801 319.248C249.863 323.226 253.44 328.791 254.954 335.048L286.774 466.829C287.632 470.385 287.673 474.09 286.893 477.663C286.113 481.237 284.531 484.588 282.269 487.462C280.005 490.336 277.12 492.66 273.829 494.257C270.539 495.854 266.928 496.684 263.27 496.684H63.9111C57.4856 496.69 51.244 494.538 46.1881 490.572C41.1326 486.607 37.5551 481.058 36.03 474.816L3.69611 343.06C2.82299 339.5 2.77054 335.789 3.54262 332.206C4.31471 328.623 5.89117 325.263 8.15278 322.379C10.4145 319.495 13.3022 317.163 16.5975 315.559C19.893 313.955 23.5099 313.122 27.1749 313.121Z" fill="#FF522C"/>
<path d="M34.4521 318.791H221.979C228.02 318.799 233.883 320.833 238.631 324.569C243.379 328.304 246.736 333.524 248.165 339.394L278.036 463.02C278.842 466.356 278.882 469.83 278.15 473.183C277.419 476.536 275.936 479.68 273.813 482.376C271.691 485.073 268.984 487.252 265.897 488.751C262.809 490.249 259.422 491.028 255.991 491.028H68.9197C62.8973 491.015 57.0521 488.988 52.315 485.27C47.5771 481.552 44.2194 476.355 42.7759 470.509L12.4155 346.874C11.5956 343.534 11.5462 340.052 12.271 336.689C12.9957 333.328 14.4756 330.175 16.5986 327.469C18.7217 324.764 21.4323 322.576 24.5253 321.072C27.6185 319.569 31.013 318.788 34.4521 318.791Z" fill="#FF522C"/>
<path d="M27.1749 313.121H227.048C233.486 313.113 239.74 315.271 244.801 319.248C249.863 323.226 253.44 328.791 254.954 335.048L286.774 466.829C287.632 470.385 287.673 474.09 286.893 477.663C286.113 481.237 284.531 484.588 282.269 487.462C280.005 490.336 277.12 492.66 273.829 494.257C270.539 495.854 266.928 496.684 263.27 496.684H63.9111C57.4856 496.69 51.244 494.538 46.1881 490.572C41.1326 486.607 37.5551 481.058 36.03 474.816L3.69611 343.06C2.82299 339.5 2.77054 335.789 3.54262 332.206C4.31471 328.623 5.89117 325.263 8.15278 322.379C10.4145 319.495 13.3022 317.163 16.5975 315.559C19.893 313.955 23.5099 313.122 27.1749 313.121Z" stroke="black" stroke-width="4.83" stroke-miterlimit="10"/>
<path d="M120.784 400.898L108.868 345.347C108.621 344.172 107.976 343.118 107.044 342.362C106.113 341.604 104.95 341.191 103.749 341.189H44.7818C43.9886 341.192 43.2063 341.374 42.494 341.723C41.7818 342.072 41.1582 342.578 40.6707 343.204C40.1832 343.83 39.8444 344.559 39.6799 345.335C39.5156 346.11 39.5298 346.914 39.7218 347.683L53.5105 403.884C53.6817 404.667 54.0469 405.395 54.5731 406.001C55.0454 406.601 55.6467 407.086 56.3332 407.421C57.0197 407.756 57.7736 407.93 58.5368 407.932H58.6465L115.716 407.257C116.487 407.246 117.245 407.065 117.937 406.727C118.63 406.389 119.239 405.902 119.722 405.301C120.213 404.691 120.563 403.98 120.747 403.219C120.931 402.458 120.944 401.665 120.784 400.898ZM43.6602 346.688C43.6174 346.522 43.6134 346.348 43.6485 346.18C43.6836 346.012 43.7568 345.854 43.8626 345.718C43.9708 345.577 44.11 345.463 44.2693 345.384C44.4287 345.305 44.604 345.264 44.7818 345.263H103.749C104.014 345.262 104.272 345.352 104.478 345.52C104.685 345.688 104.826 345.922 104.879 346.182L113.953 388.493C83.6517 359.237 80.2193 392.802 80.2193 392.802C63.1162 383.897 58.1742 393.646 56.7405 400.063L43.6602 346.688Z" fill="#D7E8F0"/>
<path d="M60.6919 366.852C63.981 365.832 65.5412 361.472 64.1918 357.111C62.8425 352.751 59.0727 350.053 55.7584 351.073C52.444 352.094 50.9091 356.454 52.2669 360.805C53.6247 365.157 57.4113 367.873 60.6919 366.852Z" fill="#D7E8F0"/>
<path d="M75.1263 365.857H94.4726C96.8762 365.857 99.2881 365.857 101.692 365.857H102.037C102.714 365.875 103.387 365.749 104.011 365.486C104.442 365.272 104.809 364.948 105.073 364.546C105.337 364.144 105.49 363.679 105.516 363.199C105.542 362.718 105.44 362.24 105.219 361.811C104.999 361.384 104.67 361.022 104.264 360.763C103.809 360.556 103.395 360.271 103.041 359.92C102.807 359.549 102.646 359.137 102.569 358.705C102.122 357.485 101.259 356.46 100.132 355.812C99.3109 355.261 98.3883 354.881 97.4168 354.693C96.4461 354.506 95.4476 354.517 94.4811 354.725C93.5273 354.966 92.6544 355.454 91.951 356.141C91.3523 356.732 91.2342 357.524 90.7703 358.182C90.4667 358.612 90.2728 358.477 89.8595 358.241C89.4463 358.005 89.2186 357.828 88.8813 357.659C88.2159 357.304 87.5251 356.997 86.815 356.74C85.3687 356.205 83.8262 355.978 82.2863 356.074C79.5791 356.285 76.8804 357.896 75.9359 360.442C75.0849 360.454 74.2652 360.769 73.626 361.33C72.9859 361.89 72.5667 362.662 72.4444 363.504C72.3888 363.829 72.4098 364.162 72.506 364.477C72.603 364.792 72.7725 365.08 73.001 365.317C73.6158 365.759 74.3748 365.951 75.1263 365.857Z" fill="#D7E8F0"/>
<path d="M213.824 364.658L212.273 358.274C211.232 353.982 208.779 350.165 205.306 347.436C201.834 344.707 197.545 343.225 193.129 343.229H171.817C169.386 343.226 166.987 343.784 164.806 344.86C162.626 345.937 160.723 347.501 159.245 349.433C157.769 351.364 156.758 353.611 156.29 355.997C155.823 358.383 155.913 360.845 156.553 363.191L158.315 369.676C159.441 373.849 161.911 377.533 165.343 380.16C168.775 382.787 172.977 384.209 177.299 384.207H198.484C200.876 384.205 203.238 383.659 205.389 382.612C207.541 381.564 209.426 380.041 210.903 378.159C212.381 376.277 213.411 374.083 213.917 371.745C214.423 369.406 214.391 366.983 213.824 364.658ZM190.388 366.235L183.11 370.713C182.83 370.891 182.512 371.002 182.181 371.037C181.851 371.072 181.517 371.029 181.205 370.913C180.894 370.798 180.614 370.61 180.387 370.368C180.16 370.125 179.992 369.834 179.897 369.516L177.156 360.559C177.041 360.162 177.041 359.74 177.156 359.342C177.272 358.945 177.498 358.588 177.808 358.315C178.118 358.041 178.5 357.861 178.908 357.796C179.317 357.73 179.735 357.782 180.116 357.945L190.211 362.406C190.572 362.569 190.881 362.827 191.105 363.153C191.329 363.48 191.459 363.861 191.481 364.257C191.503 364.652 191.415 365.045 191.229 365.394C191.041 365.743 190.762 366.034 190.421 366.235H190.388Z" fill="white"/>
<path d="M209.07 422.004H171.785C170.078 422.002 168.409 421.503 166.981 420.568C165.552 419.635 164.426 418.305 163.74 416.742C163.527 416.261 163.412 415.742 163.402 415.215C163.412 414.198 163.821 413.226 164.543 412.509C165.264 411.792 166.239 411.389 167.256 411.387H206.894C205.03 414.541 205.974 418.901 209.07 422.004Z" fill="#D7E8F0"/>
<path d="M233.224 418.176C233.221 419.191 232.817 420.163 232.1 420.881C231.383 421.599 230.41 422.003 229.395 422.004H209.07C205.975 418.901 205.031 414.541 206.895 411.387H224.79C226.495 411.388 228.161 411.883 229.59 412.813C231.018 413.742 232.145 415.066 232.836 416.624C233.07 417.11 233.201 417.638 233.224 418.176Z" fill="#FF522C"/>
<path d="M223.854 422.005C223.749 422.208 223.628 422.403 223.492 422.587C220.827 426.222 215.058 426.559 210.58 423.287C210.045 422.899 209.54 422.471 209.07 422.005C205.975 418.902 205.031 414.541 206.895 411.387C206.999 411.187 207.121 410.995 207.257 410.814C209.897 407.154 215.691 406.833 220.144 410.08C220.683 410.478 221.194 410.915 221.67 411.387C224.79 414.491 225.693 418.851 223.854 422.005Z" fill="white"/>
<path d="M242.558 441.624C242.548 442.641 242.139 443.614 241.418 444.331C240.696 445.047 239.721 445.451 238.704 445.453H90.9324C92.8215 442.282 91.877 437.939 88.7734 434.844H234.175C235.88 434.843 237.549 435.34 238.976 436.273C240.404 437.206 241.528 438.535 242.212 440.098C242.43 440.578 242.548 441.097 242.558 441.624Z" fill="#FF522C"/>
<path d="M90.9338 445.41H72.5235C70.8191 445.411 69.1518 444.916 67.7232 443.986C66.2954 443.056 65.1678 441.731 64.478 440.173C64.2612 439.685 64.1465 439.156 64.1406 438.621C64.1398 438.119 64.2376 437.621 64.4299 437.156C64.6222 436.692 64.9039 436.27 65.2597 435.915C65.6156 435.559 66.0382 435.278 66.5037 435.087C66.9684 434.896 67.4668 434.799 67.9694 434.801H88.7748C91.8783 437.896 92.8229 442.239 90.9338 445.41Z" fill="#D7E8F0"/>
<path d="M90.9288 445.409C90.8419 445.616 90.7289 445.812 90.5914 445.991C87.9518 449.651 82.158 449.963 77.6966 446.716C77.1594 446.318 76.6517 445.881 76.1786 445.409C73.1004 442.305 72.1559 437.971 73.9944 434.8C74.0964 434.595 74.2178 434.4 74.357 434.218C77.022 430.583 82.7905 430.246 87.2686 433.509C87.8033 433.898 88.3051 434.33 88.7698 434.8C91.8733 437.895 92.8179 442.238 90.9288 445.409Z" fill="white"/>
<path d="M103.969 468.612H80.5741C78.8705 468.61 77.2032 468.115 75.7754 467.185C74.3477 466.256 73.2201 464.932 72.5286 463.375C72.2966 462.904 72.1642 462.39 72.1406 461.865C72.1432 460.846 72.5488 459.87 73.2699 459.149C73.9901 458.428 74.9667 458.022 75.9863 458.02H101.767C99.9711 461.207 100.89 465.542 103.969 468.612Z" fill="#FF522C"/>
<path d="M250.579 464.841C250.566 465.854 250.151 466.818 249.427 467.525C248.703 468.232 247.728 468.622 246.716 468.611H103.972C100.893 465.508 99.9488 461.173 101.787 458.002H242.196C243.901 458.001 245.57 458.498 246.997 459.431C248.425 460.364 249.549 461.693 250.233 463.256C250.457 463.755 250.574 464.295 250.579 464.841Z" fill="#D7E8F0"/>
<path d="M118.747 468.611C118.645 468.816 118.524 469.011 118.384 469.193C115.745 472.853 109.951 473.165 105.498 469.918C104.958 469.521 104.448 469.084 103.972 468.611C100.893 465.508 99.9488 461.173 101.787 458.002C101.893 457.799 102.014 457.605 102.15 457.42C104.815 453.785 110.583 453.465 115.062 456.712C115.598 457.099 116.1 457.53 116.563 458.002C119.666 461.131 120.611 465.491 118.747 468.611Z" fill="white"/>
<g opacity="0.21">
<path opacity="0.21" d="M122.831 402.929L110.939 347.378C110.693 346.203 110.05 345.149 109.117 344.393C108.185 343.638 107.02 343.226 105.82 343.229H46.845C46.0463 343.229 45.2586 343.412 44.5421 343.764C43.8256 344.116 43.1997 344.628 42.7126 345.261C42.2295 345.881 41.8948 346.603 41.7339 347.371C41.5731 348.14 41.5906 348.936 41.7849 349.697L55.5736 405.906C55.7423 406.689 56.1041 407.417 56.6278 408.023C57.1017 408.622 57.7056 409.107 58.3929 409.441C59.0811 409.774 59.8359 409.946 60.5999 409.946H60.7349L117.796 409.263C118.565 409.253 119.322 409.074 120.013 408.737C120.704 408.401 121.312 407.914 121.793 407.314C122.278 406.705 122.622 405.995 122.802 405.237C122.981 404.48 122.991 403.691 122.831 402.929ZM45.698 348.727C45.655 348.56 45.6516 348.386 45.6887 348.217C45.725 348.049 45.8009 347.891 45.9088 347.757C46.0143 347.616 46.1517 347.5 46.3103 347.422C46.468 347.342 46.6426 347.301 46.8197 347.302H105.786C106.052 347.3 106.31 347.39 106.518 347.555C106.725 347.721 106.868 347.953 106.925 348.213L115.999 390.523C85.6895 361.259 82.2655 394.833 82.2655 394.833C65.1709 385.927 60.2204 395.676 58.7952 402.094L45.698 348.727Z" fill="#D7E8F0"/>
<path opacity="0.21" d="M62.7325 368.884C66.0131 367.864 67.5817 363.504 66.2239 359.152C64.8661 354.801 61.1133 352.085 57.7905 353.105C54.4677 354.126 52.9412 358.486 54.2906 362.846C55.6399 367.206 59.494 369.939 62.7325 368.884Z" fill="#D7E8F0"/>
<path opacity="0.21" d="M77.2044 367.897H96.5423C98.9543 367.897 101.358 367.897 103.77 367.897H104.107C104.784 367.916 105.457 367.789 106.081 367.526C106.514 367.314 106.883 366.99 107.148 366.589C107.415 366.186 107.569 365.72 107.594 365.239C107.621 364.758 107.517 364.278 107.295 363.849C107.074 363.421 106.742 363.06 106.334 362.803C105.883 362.589 105.471 362.304 105.111 361.959C104.883 361.583 104.724 361.169 104.638 360.737C104.191 359.52 103.332 358.5 102.21 357.852C101.389 357.299 100.464 356.917 99.4915 356.73C98.5191 356.543 97.5189 356.554 96.5508 356.764C95.613 357.007 94.757 357.496 94.0713 358.181C93.4641 358.772 93.3545 359.556 92.8907 360.222C92.5871 360.652 92.3931 360.517 91.9798 360.273C91.5666 360.028 91.3389 359.868 91.0016 359.691C90.3362 359.337 89.6455 359.034 88.9354 358.78C87.489 358.243 85.9465 358.013 84.4066 358.105C81.6994 358.316 79.0007 359.935 78.0477 362.474C77.1968 362.488 76.3788 362.804 75.7404 363.367C75.1019 363.929 74.6853 364.702 74.5647 365.544C74.5099 365.868 74.5318 366.201 74.6263 366.515C74.7216 366.829 74.8877 367.117 75.1129 367.357C75.7218 367.784 76.4648 367.976 77.2044 367.897Z" fill="#D7E8F0"/>
<path opacity="0.21" d="M215.903 366.691L214.351 360.315C213.309 356.022 210.854 352.204 207.381 349.473C203.907 346.743 199.617 345.26 195.199 345.262H173.853C171.425 345.26 169.029 345.818 166.85 346.894C164.672 347.968 162.771 349.53 161.295 351.459C159.818 353.387 158.806 355.63 158.337 358.012C157.868 360.396 157.954 362.855 158.589 365.198L160.351 371.692C161.479 375.866 163.951 379.551 167.384 382.178C170.817 384.805 175.021 386.226 179.344 386.223H200.528C202.922 386.224 205.284 385.682 207.437 384.637C209.59 383.592 211.478 382.071 212.959 380.191C214.439 378.31 215.473 376.118 215.983 373.779C216.493 371.442 216.466 369.018 215.903 366.691ZM192.458 368.251L185.154 372.755C184.874 372.934 184.557 373.044 184.227 373.079C183.898 373.113 183.565 373.071 183.253 372.955C182.943 372.839 182.663 372.652 182.437 372.41C182.211 372.167 182.044 371.875 181.95 371.557L179.251 362.593C179.138 362.196 179.14 361.775 179.256 361.379C179.372 360.983 179.598 360.628 179.909 360.355C180.218 360.083 180.598 359.903 181.007 359.838C181.414 359.773 181.831 359.825 182.211 359.987L192.23 364.439C192.586 364.604 192.889 364.862 193.11 365.186C193.331 365.509 193.46 365.887 193.483 366.278C193.507 366.668 193.424 367.059 193.243 367.406C193.062 367.754 192.791 368.046 192.458 368.251Z" fill="#D7E8F0"/>
<path opacity="0.21" d="M211.111 424.037H173.827C172.121 424.034 170.453 423.536 169.025 422.603C167.597 421.671 166.47 420.344 165.781 418.783C165.518 418.201 165.407 417.561 165.457 416.925C165.507 416.288 165.718 415.674 166.069 415.139C166.419 414.606 166.898 414.169 167.464 413.869C168.028 413.57 168.659 413.418 169.298 413.428H208.935C207.08 416.574 208.007 420.942 211.111 424.037Z" fill="#D7E8F0"/>
<path opacity="0.21" d="M235.217 420.208C235.217 421.223 234.814 422.195 234.098 422.913C233.382 423.631 232.41 424.035 231.396 424.037H211.114C208.01 420.942 207.066 416.573 208.929 413.428H226.834C228.538 413.427 230.206 413.921 231.635 414.851C233.064 415.781 234.19 417.106 234.879 418.665C235.095 419.152 235.21 419.677 235.217 420.208Z" fill="#FF522C"/>
<path opacity="0.21" d="M225.889 424.037C225.79 424.244 225.668 424.439 225.527 424.619C222.862 428.254 217.093 428.592 212.615 425.328C212.082 424.936 211.58 424.506 211.114 424.037C208.01 420.942 207.066 416.574 208.929 413.428C209.035 413.223 209.159 413.028 209.301 412.846C211.94 409.186 217.734 408.874 222.187 412.121C222.727 412.518 223.238 412.955 223.713 413.428C226.792 416.532 227.736 420.867 225.889 424.037Z" fill="white"/>
<path opacity="0.21" d="M244.592 443.619C244.583 444.635 244.173 445.608 243.451 446.323C242.73 447.038 241.754 447.439 240.738 447.439H92.9754C94.8645 444.268 93.9199 439.934 90.8164 436.83H236.209C237.917 436.83 239.588 437.328 241.016 438.263C242.446 439.197 243.571 440.528 244.255 442.093C244.472 442.573 244.586 443.093 244.592 443.619Z" fill="#FF522C"/>
<path opacity="0.21" d="M92.9773 447.439H74.5587C72.8559 447.439 71.1895 446.944 69.7617 446.017C68.3339 445.088 67.2055 443.767 66.5131 442.211C66.3014 441.721 66.1867 441.194 66.1758 440.659C66.1758 439.644 66.5789 438.67 67.2974 437.952C68.0151 437.234 68.9892 436.83 70.0046 436.83H90.8184C93.9219 439.934 94.8664 444.268 92.9773 447.439Z" fill="#D7E8F0"/>
<path opacity="0.21" d="M92.9739 447.441C92.887 447.65 92.7706 447.846 92.6281 448.023C89.9884 451.683 84.1946 452.003 79.7418 448.756C79.2012 448.356 78.691 447.916 78.2153 447.441C75.1371 444.346 74.1925 440.002 76.0395 436.831C76.139 436.625 76.2604 436.429 76.4021 436.25C79.0671 432.615 84.8356 432.277 89.3138 435.55C89.8442 435.94 90.346 436.368 90.8149 436.831C93.9184 439.935 94.863 444.27 92.9739 447.441Z" fill="white"/>
<path opacity="0.21" d="M106.006 470.674H82.5782C80.8755 470.67 79.2107 470.175 77.7829 469.248C76.356 468.32 75.2267 466.999 74.5327 465.445C74.321 464.963 74.2063 464.445 74.1953 463.919C74.1995 462.898 74.6069 461.92 75.3288 461.199C76.0507 460.477 77.029 460.069 78.0494 460.064H103.831C101.984 463.235 102.928 467.579 106.006 470.674Z" fill="#FF522C"/>
<path opacity="0.21" d="M252.624 466.87C252.623 467.372 252.523 467.868 252.33 468.33C252.137 468.793 251.854 469.213 251.499 469.566C251.143 469.92 250.722 470.2 250.258 470.39C249.794 470.579 249.296 470.676 248.795 470.674H106.008C102.93 467.579 101.986 463.235 103.832 460.064H244.233C245.941 460.064 247.611 460.562 249.04 461.496C250.469 462.432 251.594 463.763 252.278 465.327C252.498 465.813 252.615 466.338 252.624 466.87Z" fill="#D7E8F0"/>
<path opacity="0.21" d="M120.792 470.677C120.687 470.882 120.563 471.077 120.421 471.259C117.781 474.919 111.988 475.239 107.535 471.992C106.994 471.592 106.484 471.152 106.008 470.677C102.93 467.582 101.986 463.238 103.832 460.068C103.932 459.861 104.053 459.666 104.195 459.486C106.86 455.851 112.629 455.539 117.107 458.786C117.637 459.176 118.139 459.605 118.608 460.068C121.711 463.171 122.656 467.531 120.792 470.677Z" fill="white"/>
</g>
</svg>
