<svg width="143" height="40" viewBox="0 0 143 40" fill="none" xmlns="http://www.w3.org/2000/svg">
<path d="M14.8462 1.30081C18.6932 1.30081 21.9425 2.56549 24.5943 5.09485C27.2461 7.62421 28.572 10.6956 28.572 14.3089C28.572 17.9223 27.2461 20.9937 24.5943 23.523C21.9425 26.0524 18.6932 27.3171 14.8462 27.3171H8.96376V39.2412H0V1.30081H14.8462ZM14.8462 19.187C16.2281 19.187 17.3673 18.7173 18.2637 17.7778C19.16 16.8383 19.6082 15.682 19.6082 14.3089C19.6082 12.9359 19.16 11.7796 18.2637 10.8401C17.3673 9.90063 16.2281 9.4309 14.8462 9.4309H8.96376V19.187H14.8462Z" fill="#3A3A3C"/>
<path d="M40.6214 16.9648C41.1443 15.2304 42.1901 13.9115 43.7587 13.0081C45.3647 12.0687 47.1201 11.5989 49.0249 11.5989V20.813C46.9707 20.4878 45.0473 20.8311 43.2545 21.8428C41.4991 22.8184 40.6214 24.5348 40.6214 26.9919V39.2412H32.2179V12.1409H40.6214V16.9648Z" fill="#3A3A3C"/>
<path d="M60.6844 8.34688C59.7133 9.28636 58.5368 9.7561 57.1549 9.7561C55.773 9.7561 54.5778 9.28636 53.5694 8.34688C52.5983 7.37127 52.1128 6.215 52.1128 4.87805C52.1128 3.5411 52.5983 2.40289 53.5694 1.46342C54.5778 0.487805 55.773 0 57.1549 0C58.5368 0 59.7133 0.487805 60.6844 1.46342C61.6928 2.40289 62.197 3.5411 62.197 4.87805C62.197 6.215 61.6928 7.37127 60.6844 8.34688ZM52.9532 39.2412V12.1409H61.3567V39.2412H52.9532Z" fill="#3A3A3C"/>
<path d="M98.8793 11.3821C102.091 11.3821 104.668 12.4119 106.611 14.4715C108.553 16.495 109.524 19.2051 109.524 22.6016V39.2412H101.12V23.3062C101.12 21.9332 100.765 20.8491 100.056 20.0542C99.3835 19.2593 98.3938 18.8618 97.0865 18.8618C95.7046 18.8618 94.6215 19.3135 93.8372 20.2168C93.0902 21.1201 92.7167 22.3668 92.7167 23.9566V39.2412H84.3132V23.3062C84.3132 21.9332 83.9584 20.8491 83.2487 20.0542C82.5765 19.2593 81.5867 18.8618 80.2795 18.8618C78.8976 18.8618 77.8145 19.3135 77.0301 20.2168C76.2831 21.1201 75.9097 22.3668 75.9097 23.9566V39.2412H67.5061V12.1409H75.9097V14.6341C77.441 12.4661 79.9434 11.3821 83.4168 11.3821C86.6662 11.3821 89.1125 12.5745 90.7559 14.9594C92.4739 12.5745 95.1817 11.3821 98.8793 11.3821Z" fill="#3A3A3C"/>
<path d="M122.776 28.9431C123.747 31.4725 125.988 32.7371 129.498 32.7371C131.777 32.7371 133.569 32.0506 134.877 30.6775L141.599 34.4173C138.836 38.1391 134.765 40 129.386 40C124.68 40 120.908 38.645 118.07 35.935C115.268 33.2249 113.868 29.8103 113.868 25.6911C113.868 21.608 115.25 18.2114 118.014 15.5014C120.815 12.7552 124.4 11.3821 128.77 11.3821C132.841 11.3821 136.221 12.7552 138.91 15.5014C141.637 18.2114 143 21.608 143 25.6911C143 26.8473 142.888 27.9313 142.664 28.9431H122.776ZM122.607 22.8726H134.652C133.831 20.0181 131.851 18.5908 128.714 18.5908C125.465 18.5908 123.429 20.0181 122.607 22.8726Z" fill="#3A3A3C"/>
</svg>
