<svg width="72" height="72" viewBox="0 0 72 72" fill="none" xmlns="http://www.w3.org/2000/svg">
<circle cx="35.9679" cy="35.9679" r="35.9679" fill="#00CC83"/>
<path d="M21.3522 18.8323C21.3522 17.1853 22.6792 15.8501 24.3162 15.8501H43.6125V21.8506L24.3106 21.8144C22.6758 21.8113 21.3522 20.4771 21.3522 18.8323Z" fill="white"/>
<path d="M30.9507 43.6869C30.9507 42.0426 32.2727 40.7081 33.907 40.7026L43.6125 40.67V46.6713H33.9169C32.2787 46.6713 30.9507 45.3351 30.9507 43.6869Z" fill="white"/>
<path d="M46.2674 31.1629C46.2674 32.8072 44.9455 34.1418 43.3112 34.1473L33.6056 34.1799V28.1786L43.3013 28.1786C44.9394 28.1786 46.2674 29.5147 46.2674 31.1629Z" fill="white"/>
<path d="M21.2675 56.1775C19.6445 56.1775 18.3276 54.8558 18.3237 53.2228L18.2888 43.5892H24.2113L24.2113 53.2156C24.2113 54.8514 22.8933 56.1775 21.2675 56.1775Z" fill="white"/>
<path d="M43.6125 46.6713C47.6748 46.6713 51.5707 45.0477 54.4431 42.1576C57.3156 39.2676 58.9293 35.3478 58.9293 31.2607C58.9293 27.1735 57.3156 23.2538 54.4431 20.3638C51.5707 17.4737 47.6748 15.8501 43.6125 15.8501V21.8523C46.0926 21.8523 48.4711 22.8435 50.2248 24.6079C51.9784 26.3724 52.9636 28.7654 52.9636 31.2607C52.9636 33.7559 51.9784 36.149 50.2248 37.9134C48.4711 39.6778 46.0926 40.67 43.6125 40.67V46.6713Z" fill="white"/>
<path d="M33.6056 28.1786C31.5942 28.1786 29.6024 28.5772 27.7441 29.3516C25.8858 30.1261 24.1973 31.2612 22.775 32.6922C21.3527 34.1232 20.2245 35.8221 19.4547 37.6918C18.685 39.5615 18.2888 41.5654 18.2888 43.5892H24.2545C24.2545 42.3536 24.4964 41.1302 24.9663 39.9887C25.4362 38.8472 26.125 37.8101 26.9934 36.9364C27.8617 36.0628 28.8925 35.3698 30.0271 34.8969C31.1616 34.4241 32.3776 34.1799 33.6056 34.1799V28.1786Z" fill="white"/>
</svg>
