<svg width="25" height="24" viewBox="0 0 25 24" fill="none" xmlns="http://www.w3.org/2000/svg">
<path d="M12.0017 0.396564C12.0017 0.206737 12.0017 0.11183 12.0627 0.0528613C12.1236 -0.00609391 12.2163 -0.00301321 12.4018 0.00317435C14.9008 0.0864797 17.3153 0.948671 19.3048 2.47424C21.4003 4.08108 22.9073 6.33417 23.5925 8.8844C24.2777 11.4346 24.1026 14.1396 23.0944 16.5802C22.0863 19.0209 20.3013 21.0609 18.0162 22.3841C15.7311 23.7075 13.0732 24.2403 10.4546 23.8998C7.836 23.5594 5.40274 22.3649 3.53187 20.5013C1.661 18.6377 0.456951 16.2092 0.1063 13.5919C-0.226615 11.107 0.227371 8.58377 1.39898 6.3748C1.48591 6.21092 1.52937 6.12898 1.61085 6.10546C1.69234 6.08193 1.77466 6.12917 1.9393 6.22365L9.33657 10.4687C9.49379 10.559 9.57233 10.604 9.597 10.674C9.62181 10.7441 9.58487 10.8389 9.51099 11.0284C9.3479 11.4475 9.29225 11.9032 9.35257 12.3532C9.43058 12.9361 9.69875 13.4769 10.1155 13.892C10.5321 14.307 11.074 14.573 11.6572 14.6488C12.2403 14.7246 12.8323 14.6059 13.3411 14.3112C13.8502 14.0165 14.2477 13.5622 14.4721 13.0187C14.6967 12.4751 14.7356 11.8728 14.5831 11.3048C14.4305 10.7369 14.0949 10.2351 13.6283 9.87713C13.2679 9.60096 12.8451 9.42227 12.4003 9.35519C12.1991 9.32491 12.0986 9.30974 12.0502 9.25348C12.0017 9.19723 12.0017 9.1066 12.0017 8.92531V0.396564Z" fill="#9439DC" fill-opacity="0.45"/>
<path d="M7.53598 19.7357C7.4409 19.9004 7.39337 19.9827 7.41723 20.0647C7.44109 20.1466 7.52292 20.1894 7.68659 20.2747C8.83515 20.8737 10.0973 21.2278 11.3928 21.3127C12.8215 21.4063 14.2527 21.17 15.5755 20.6222C16.8984 20.0743 18.0774 19.2294 19.0215 18.1528C19.9655 17.0764 20.6493 15.7971 21.0199 14.414C21.3905 13.031 21.438 11.5812 21.1586 10.177C20.8792 8.77262 20.2806 7.45139 19.409 6.31545C18.5373 5.17951 17.4161 4.2593 16.1319 3.62602C14.9675 3.05179 13.6974 2.72743 12.4032 2.67194C12.2188 2.66403 12.1266 2.66007 12.0649 2.71913C12.0033 2.77819 12.0033 2.87327 12.0033 3.06342V8.93406C12.0033 9.11531 12.0033 9.20593 12.0517 9.26218C12.1001 9.31842 12.2007 9.33366 12.4019 9.36407C12.6721 9.405 12.935 9.48728 13.1815 9.60877C13.548 9.78959 13.868 10.0522 14.1168 10.3763C14.3655 10.7005 14.5363 11.0775 14.6161 11.4784C14.6958 11.8791 14.6822 12.2929 14.5765 12.6875C14.4707 13.0822 14.2756 13.4473 14.0061 13.7546C13.7367 14.0617 13.4003 14.3028 13.0228 14.4592C12.6452 14.6156 12.2368 14.683 11.829 14.6563C11.5548 14.6383 11.2859 14.578 11.0314 14.4784C10.8421 14.4041 10.7472 14.3671 10.6772 14.3916C10.6072 14.4161 10.5619 14.4945 10.4713 14.6515L7.53598 19.7357Z" fill="#9439DC"/>
</svg>
