<svg width="390" height="334" viewBox="0 0 390 334" fill="none" xmlns="http://www.w3.org/2000/svg">
<path d="M29.2255 306.509C31.4683 307.297 33.8764 307.495 36.2177 307.082C38.559 306.67 40.7547 305.661 42.5931 304.154C47.2751 300.224 48.7434 293.751 49.9375 287.757L53.4704 270.025L46.074 275.118C40.7546 278.78 35.3158 282.56 31.633 287.865C27.9503 293.17 26.3436 300.412 29.3017 306.152" fill="#E6E6E6"/>
<path d="M30.3679 329.211C29.4369 322.428 28.4791 315.558 29.1337 308.703C29.7138 302.615 31.5712 296.67 35.3527 291.793C37.3599 289.21 39.8023 286.996 42.5701 285.253C43.2917 284.797 43.956 285.941 43.2375 286.394C38.4483 289.421 34.744 293.89 32.6586 299.158C30.3555 305.015 29.9857 311.401 30.3824 317.623C30.6222 321.386 31.1318 325.125 31.6435 328.859C31.6839 329.027 31.6587 329.205 31.5729 329.356C31.4872 329.507 31.3473 329.62 31.1816 329.672C31.0125 329.717 30.8323 329.694 30.6801 329.608C30.5278 329.521 30.4158 329.378 30.3683 329.21L30.3679 329.211Z" fill="#F2F2F2"/>
<path d="M37.0703 318.328C38.0321 319.79 39.3542 320.98 40.9094 321.783C42.4646 322.586 44.2004 322.975 45.9495 322.912C50.4455 322.699 54.1921 319.562 57.5646 316.583L67.5417 307.774L60.9388 307.458C56.1902 307.231 51.3191 307.018 46.7962 308.484C42.2733 309.95 38.1022 313.472 37.2753 318.154" fill="#E6E6E6"/>
<path d="M27.7393 333.109C32.2212 325.179 37.4194 316.366 46.7085 313.549C49.2911 312.768 51.9991 312.489 54.6867 312.725C55.5338 312.798 55.3223 314.104 54.4769 314.031C49.9717 313.657 45.4752 314.847 41.7444 317.399C38.1542 319.843 35.3587 323.241 32.993 326.843C31.5437 329.05 30.2456 331.351 28.9475 333.648C28.5327 334.382 27.3197 333.852 27.7393 333.109Z" fill="#F2F2F2"/>
<path d="M386.356 235.212H139.263C138.501 235.211 137.771 234.908 137.233 234.37C136.695 233.832 136.392 233.102 136.391 232.34V2.87194C136.392 2.11056 136.695 1.38065 137.233 0.84227C137.771 0.303894 138.501 0.000995314 139.263 0H386.356C387.117 0.000995314 387.847 0.303894 388.385 0.84227C388.924 1.38065 389.227 2.11056 389.228 2.87194V232.34C389.227 233.101 388.924 233.831 388.386 234.37C387.847 234.908 387.117 235.211 386.356 235.212Z" fill="white"/>
<path d="M386.356 235.212H139.263C138.501 235.211 137.771 234.908 137.233 234.37C136.695 233.832 136.392 233.102 136.391 232.34V2.87194C136.392 2.11056 136.695 1.38065 137.233 0.84227C137.771 0.303894 138.501 0.000995314 139.263 0H386.356C387.117 0.000995314 387.847 0.303894 388.385 0.84227C388.924 1.38065 389.227 2.11056 389.228 2.87194V232.34C389.227 233.101 388.924 233.831 388.386 234.37C387.847 234.908 387.117 235.211 386.356 235.212ZM139.263 1.14651C138.806 1.1475 138.369 1.32921 138.046 1.65187C137.724 1.97453 137.542 2.41186 137.541 2.86817V232.34C137.542 232.796 137.724 233.233 138.046 233.556C138.369 233.879 138.806 234.06 139.263 234.061H386.356C386.812 234.06 387.25 233.879 387.572 233.556C387.895 233.233 388.077 232.796 388.077 232.34V2.87194C388.076 2.41563 387.895 1.9783 387.572 1.65564C387.249 1.33298 386.812 1.15127 386.356 1.15028L139.263 1.14651Z" fill="#CACACA"/>
<path d="M256.021 59.6279C255.504 59.6288 255.009 59.8346 254.644 60.2002C254.279 60.5657 254.074 61.0612 254.074 61.5777C254.074 62.0942 254.279 62.5897 254.644 62.9552C255.009 63.3208 255.504 63.5266 256.021 63.5275H363.008C363.525 63.5266 364.02 63.3208 364.385 62.9552C364.75 62.5897 364.955 62.0942 364.955 61.5777C364.955 61.0612 364.75 60.5657 364.385 60.2002C364.02 59.8346 363.525 59.6288 363.008 59.6279H256.021Z" fill="#E4E4E4"/>
<path d="M256.019 71.3276C255.503 71.3289 255.008 71.5349 254.644 71.9004C254.279 72.2659 254.074 72.7611 254.074 73.2774C254.074 73.7937 254.279 74.2889 254.644 74.6544C255.008 75.02 255.503 75.2259 256.019 75.2272H310.639C311.155 75.2259 311.65 75.02 312.014 74.6544C312.379 74.2889 312.584 73.7937 312.584 73.2774C312.584 72.7611 312.379 72.2659 312.014 71.9004C311.65 71.5349 311.155 71.3289 310.639 71.3276H256.019Z" fill="#E4E4E4"/>
<path d="M162.511 134.245C161.995 134.246 161.5 134.452 161.136 134.817C160.771 135.183 160.566 135.678 160.566 136.194C160.566 136.711 160.771 137.206 161.136 137.571C161.5 137.937 161.995 138.143 162.511 138.144H363.114C363.63 138.143 364.125 137.937 364.49 137.571C364.854 137.206 365.059 136.711 365.059 136.194C365.059 135.678 364.854 135.183 364.49 134.817C364.125 134.452 363.63 134.246 363.114 134.245H162.511Z" fill="#E4E4E4"/>
<path d="M162.511 145.944C161.995 145.946 161.5 146.152 161.136 146.517C160.771 146.883 160.566 147.378 160.566 147.894C160.566 148.41 160.771 148.906 161.136 149.271C161.5 149.637 161.995 149.843 162.511 149.844H310.746C311.262 149.843 311.757 149.637 312.121 149.271C312.486 148.906 312.691 148.41 312.691 147.894C312.691 147.378 312.486 146.883 312.121 146.517C311.757 146.152 311.262 145.946 310.746 145.944H162.511Z" fill="#E4E4E4"/>
<path d="M162.511 157.379C161.995 157.381 161.5 157.587 161.136 157.952C160.771 158.318 160.566 158.813 160.566 159.329C160.566 159.845 160.771 160.341 161.136 160.706C161.5 161.072 161.995 161.278 162.511 161.279H363.114C363.63 161.278 364.125 161.072 364.49 160.706C364.854 160.341 365.059 159.845 365.059 159.329C365.059 158.813 364.854 158.318 364.49 157.952C364.125 157.587 363.63 157.381 363.114 157.379H162.511Z" fill="#E4E4E4"/>
<path d="M162.511 169.079C161.995 169.08 161.5 169.286 161.136 169.652C160.771 170.017 160.566 170.513 160.566 171.029C160.566 171.545 160.771 172.04 161.136 172.406C161.5 172.771 161.995 172.977 162.511 172.979H310.746C311.262 172.977 311.757 172.771 312.121 172.406C312.486 172.04 312.691 171.545 312.691 171.029C312.691 170.513 312.486 170.017 312.121 169.652C311.757 169.286 311.262 169.08 310.746 169.079H162.511Z" fill="#E4E4E4"/>
<path d="M162.511 180.819C161.995 180.82 161.5 181.026 161.136 181.392C160.771 181.757 160.566 182.252 160.566 182.769C160.566 183.285 160.771 183.78 161.136 184.146C161.5 184.511 161.995 184.717 162.511 184.718H363.114C363.63 184.717 364.125 184.511 364.49 184.146C364.854 183.78 365.059 183.285 365.059 182.769C365.059 182.252 364.854 181.757 364.49 181.392C364.125 181.026 363.63 180.82 363.114 180.819H162.511Z" fill="#E4E4E4"/>
<path d="M162.511 192.519C161.995 192.52 161.5 192.726 161.136 193.091C160.771 193.457 160.566 193.952 160.566 194.468C160.566 194.985 160.771 195.48 161.136 195.845C161.5 196.211 161.995 196.417 162.511 196.418H310.746C311.262 196.417 311.757 196.211 312.121 195.845C312.486 195.48 312.691 194.985 312.691 194.468C312.691 193.952 312.486 193.457 312.121 193.091C311.757 192.726 311.262 192.52 310.746 192.519H162.511Z" fill="#E4E4E4"/>
<path d="M194.287 95.4403C188.746 95.4403 183.33 93.7974 178.723 90.7194C174.117 87.6413 170.526 83.2663 168.406 78.1476C166.286 73.029 165.731 67.3965 166.812 61.9625C167.893 56.5286 170.56 51.5371 174.478 47.6194C178.396 43.7017 183.387 41.0337 188.821 39.9528C194.255 38.8719 199.888 39.4267 205.006 41.5469C210.125 43.6671 214.5 47.2576 217.578 51.8643C220.656 56.471 222.299 61.887 222.299 67.4274C222.291 74.8542 219.337 81.9745 214.085 87.2261C208.834 92.4777 201.713 95.4318 194.287 95.4403Z" fill="#00CC83"/>
<path d="M109.247 201.359C109.198 200.337 108.926 199.337 108.45 198.431C107.973 197.525 107.304 196.735 106.489 196.116C105.674 195.496 104.733 195.063 103.733 194.847C102.732 194.63 101.696 194.636 100.698 194.863L91.4389 181.814L82.1367 185.507L95.4715 203.751C95.9644 205.403 97.046 206.816 98.5113 207.723C99.9765 208.63 101.724 208.969 103.422 208.674C105.12 208.379 106.65 207.471 107.724 206.123C108.798 204.775 109.339 203.08 109.247 201.359Z" fill="#A0616A"/>
<path d="M91.2009 200.392L63.1836 164.045L73.6814 131.052C74.4507 122.758 79.6413 120.441 79.8622 120.347L80.1991 120.202L89.3341 144.563L82.6268 162.449L99.0897 190.137L91.2009 200.392Z" fill="#3F3D56"/>
<path d="M188.504 88.3467C187.488 88.474 186.513 88.8225 185.646 89.3676C184.78 89.9127 184.044 90.6411 183.489 91.5016C182.935 92.362 182.576 93.3336 182.437 94.3478C182.299 95.362 182.385 96.3943 182.689 97.3718L170.395 107.612L174.796 116.601L191.954 101.896C193.562 101.277 194.888 100.089 195.679 98.558C196.47 97.027 196.672 95.2589 196.247 93.5888C195.822 91.9187 194.799 90.4626 193.371 89.4965C191.944 88.5303 190.212 88.1212 188.504 88.3467Z" fill="#A0616A"/>
<path d="M188.935 106.414L154.863 137.157L121.158 129.242C112.828 129.116 110.118 124.12 110.006 123.907L109.836 123.582L133.418 112.591L151.769 117.896L178.101 99.3413L188.935 106.414Z" fill="#3F3D56"/>
<path d="M129.916 324.97L139.07 324.97L143.425 289.66L129.914 289.66L129.916 324.97Z" fill="#A0616A"/>
<path d="M156.727 333.469L127.956 333.471L127.955 322.354L148.654 322.353C150.795 322.353 152.848 323.204 154.362 324.717C155.876 326.231 156.726 328.284 156.726 330.425L156.727 333.469Z" fill="#2F2E41"/>
<path d="M93.3293 324.97L102.484 324.97L106.839 289.66L93.3281 289.66L93.3293 324.97Z" fill="#A0616A"/>
<path d="M120.137 333.469L91.3657 333.471L91.3652 322.354L112.064 322.353C113.124 322.353 114.174 322.562 115.153 322.968C116.133 323.373 117.023 323.968 117.772 324.717C118.522 325.467 119.116 326.357 119.522 327.336C119.928 328.315 120.137 329.365 120.137 330.425L120.137 333.469Z" fill="#2F2E41"/>
<path d="M90.0703 196.085L90.8169 248.354L91.5641 317.051L107.991 315.557L116.205 220.727L126.659 315.557H143.618L145.326 219.98L139.353 199.072L90.0703 196.085Z" fill="#2F2E41"/>
<path d="M122.225 203.104C104.351 203.106 87.8984 195.016 87.6763 194.905L87.4918 194.812L85.9919 158.815C85.5569 157.543 76.9919 132.443 75.5414 124.464C74.0716 116.381 95.3724 109.287 97.9591 108.458L98.5461 101.955L122.416 99.3833L125.442 107.703L134.005 110.915C134.976 111.279 135.78 111.987 136.263 112.904C136.747 113.821 136.878 114.884 136.631 115.891L131.871 135.246L143.495 199.283L140.993 199.391C134.994 202.1 128.52 203.104 122.225 203.104Z" fill="#3F3D56"/>
<path d="M119.658 93.1588C127.986 88.6059 131.047 78.1633 126.494 69.8346C121.942 61.5059 111.499 58.4451 103.17 62.998C94.8416 67.5508 91.7807 77.9934 96.3336 86.3221C100.886 94.6508 111.329 97.7117 119.658 93.1588Z" fill="#A0616A"/>
<path d="M97.4925 94.7163C100.768 98.2052 106.851 96.3323 107.277 91.5659C107.311 91.1958 107.309 90.8234 107.27 90.4538C107.05 88.3425 105.83 86.4257 106.122 84.1964C106.188 83.6416 106.395 83.1128 106.723 82.6603C109.333 79.1652 115.46 84.2235 117.923 81.0595C119.433 79.1195 117.658 76.0649 118.817 73.8965C120.347 71.0346 124.878 72.4464 127.72 70.8791C130.881 69.1352 130.692 64.2845 128.611 61.3341C126.073 57.7358 121.623 55.8159 117.228 55.5392C112.834 55.2625 108.469 56.4504 104.367 58.0493C99.7051 59.8659 95.0826 62.3765 92.2139 66.4754C88.7254 71.4601 88.3897 78.1615 90.1344 83.9902C91.1957 87.5358 94.8178 91.8672 97.4925 94.7163Z" fill="#2F2E41"/>
<path d="M218.386 333.912H0.571691C0.420069 333.912 0.274648 333.852 0.167435 333.745C0.0602224 333.638 0 333.492 0 333.341C0 333.189 0.0602224 333.044 0.167435 332.936C0.274648 332.829 0.420069 332.769 0.571691 332.769H218.386C218.537 332.769 218.683 332.829 218.79 332.936C218.897 333.044 218.958 333.189 218.958 333.341C218.958 333.492 218.897 333.638 218.79 333.745C218.683 333.852 218.537 333.912 218.386 333.912Z" fill="#CACACA"/>
<path d="M192.666 78.0081C192.161 78.0087 191.674 77.8175 191.304 77.4732L182.067 68.8937C181.679 68.5324 181.45 68.0318 181.431 67.5018C181.412 66.9718 181.604 66.4559 181.964 66.0673C182.325 65.6788 182.826 65.4493 183.356 65.4295C183.886 65.4097 184.402 65.601 184.791 65.9615L192.615 73.2288L208.094 57.7496C208.28 57.5627 208.5 57.4142 208.743 57.3127C208.986 57.2112 209.247 57.1587 209.511 57.1582C209.774 57.1577 210.035 57.2092 210.278 57.3098C210.522 57.4104 210.743 57.5581 210.929 57.7444C211.116 57.9307 211.263 58.1519 211.364 58.3954C211.464 58.6389 211.516 58.8998 211.515 59.1632C211.515 59.4266 211.462 59.6873 211.361 59.9304C211.259 60.1735 211.111 60.3941 210.924 60.5796L194.081 77.4222C193.895 77.6082 193.675 77.7557 193.432 77.8562C193.189 77.9568 192.929 78.0084 192.666 78.0081Z" fill="white"/>
</svg>
