<svg width="23" height="19" viewBox="0 0 23 19" fill="none" xmlns="http://www.w3.org/2000/svg">
<path d="M15 18C15 15.4953 11.8663 13.4667 8 13.4667C4.13367 13.4667 1 15.4953 1 18M8 10.0667C6.76232 10.0667 5.57534 9.58905 4.70017 8.73888C3.825 7.88872 3.33333 6.73565 3.33333 5.53333C3.33333 4.33102 3.825 3.17795 4.70017 2.32778C5.57534 1.47762 6.76232 1 8 1C9.23768 1 10.4247 1.47762 11.2998 2.32778C12.175 3.17795 12.6667 4.33102 12.6667 5.53333C12.6667 6.73565 12.175 7.88872 11.2998 8.73888C10.4247 9.58905 9.23768 10.0667 8 10.0667Z" stroke="black" stroke-width="2" stroke-linecap="round" stroke-linejoin="round"/>
<path d="M22 18C22 16.0257 20.0517 14.3473 17.3333 13.7239M15 10.0667C16.2377 10.0667 17.4247 9.58905 18.2998 8.73888C19.175 7.88872 19.6667 6.73565 19.6667 5.53333C19.6667 4.33102 19.175 3.17795 18.2998 2.32778C17.4247 1.47762 16.2377 1 15 1" stroke="#FF5E2C" stroke-width="2" stroke-linecap="round" stroke-linejoin="round"/>
</svg>
