<svg width="837" height="551" viewBox="0 0 837 551" fill="none" xmlns="http://www.w3.org/2000/svg">
<path d="M666.895 331.677L665.26 347.292C661.003 357.461 656.75 367.624 652.5 377.781C651.015 381.348 649.525 384.908 648.028 388.462C647.349 390.125 646.387 391.657 645.183 392.989C645.123 393.079 645.044 393.153 644.951 393.208C644.858 393.262 644.754 393.295 644.647 393.303C644.287 393.303 644.157 392.823 644.129 392.462C643.924 388.611 643.465 384.778 642.753 380.987C638.771 362.684 617.52 355.977 600.853 356.392C594.185 356.494 587.614 358.016 581.58 360.855C572.876 365.068 569.486 376.783 569.024 377.218L568.654 378.724L562.686 403.586C561.429 409.13 560.468 412.059 555.35 413.537C555.183 413.593 550.083 416.309 549.917 416.309C547.94 416.863 553.354 415.671 551.21 415.311L544.42 414.248L541.528 413.583L499.332 403.596C500.967 403.873 502.64 404.178 504.34 404.52L514.133 406.857L511.546 394.44C504.811 355.783 515.972 320.71 534.986 301.668C539.994 296.661 542.479 295.376 548.318 292.041L551.598 299.811C551.598 299.811 585.155 309.817 593.064 279.115C596.261 279.392 602.405 279.346 605.574 280.039C622.093 283.503 637.013 292.308 648.028 305.096C648.999 306.205 649.95 307.35 650.893 308.515L651.392 309.124C651.974 309.854 652.593 310.603 653.175 311.351L653.59 311.942C658.42 318.246 662.863 324.837 666.895 331.677Z" fill="#353642"/>
<path d="M268.164 170.069C273.486 143.46 296.085 117.682 360.63 111.778C504.097 98.668 426.543 59.1147 473.257 15.8289C519.97 -27.457 696.597 43.7591 650.392 154.981C604.186 266.203 756.717 142.758 821.318 283.638C830.676 304.081 835.182 326.412 834.484 348.885C833.669 372.63 827.554 395.893 816.587 416.969C795.956 457.271 757.632 493.175 702.205 515.423C694.026 518.755 685.464 521.752 676.52 524.412" stroke="#CCDDE2" stroke-width="4.52" stroke-miterlimit="10"/>
<path d="M722.627 388.909C721.509 401.964 712.658 404.089 712.658 404.089C705.174 408.515 693.68 403.757 691.361 395.46C691.327 395.371 691.308 395.278 691.306 395.183C689.458 388.078 685.855 378.949 681.013 368.962C671.682 346.381 659.55 323.616 643.992 305.608C632.975 292.821 618.056 284.016 601.537 280.551C601.482 280.551 601.454 280.496 601.399 280.496C579.492 273.899 568.83 260.428 564.211 247.512C564.211 247.512 564.211 247.512 564.211 247.456C562.233 239.298 560.219 231.343 561.3 226.53C563.148 218.094 564.072 208.975 561.772 207.127C558.88 204.707 553.65 206.499 540.346 209.178C528.824 211.544 522.68 210.204 521.294 203.164C521.075 202.071 520.964 200.96 520.962 199.847C520.906 200.549 518.19 197.759 518.061 198.424C517.192 202.018 515.455 203.459 511.667 205.039C506.04 207.377 503.74 216.403 502.908 222.418C502.04 228.821 504.922 237.654 507.204 243.668C504.285 240.333 500.94 240.721 495.711 242.744C494.399 243.243 491.091 243.105 488.477 242.19C488.846 241.873 489.281 241.642 489.752 241.516C490.592 241.238 484.494 238.208 485.381 238.014C494.26 236.009 499.24 228.608 498.187 222.095C495.572 205.695 499.056 186.404 510.133 173.626C522.348 159.573 542.277 156.653 559.148 163.084C572.397 168.119 584.925 178.449 589.517 192.224C589.517 192.28 589.517 192.335 589.572 192.391C590.156 194.142 590.604 195.938 590.912 197.759C592.603 208.005 588.99 218.39 586.985 228.516C586.265 232.166 588.094 236.148 588.482 239.04C590.709 256.409 610.758 261.315 626.622 268.688C659.966 284.219 687.194 310.773 705.506 343.064C717.665 364.444 722.008 379.023 722.627 388.909Z" fill="#00CC83"/>
<path d="M546.838 288.598C546.478 288.792 546.117 288.986 545.785 289.207C539.797 292.64 534.291 296.853 529.413 301.736C510.408 320.778 499.247 355.85 505.982 394.507L508.569 406.86" stroke="black" stroke-width="4.52" stroke-miterlimit="10"/>
<path d="M714.995 547.978C714.998 519.119 712.504 490.315 707.539 461.887C704.217 442.598 699.644 423.547 693.846 404.853C690.363 393.498 686.103 381.247 681.04 368.949C676.339 357.441 670.907 346.245 664.779 335.429C658.838 324.838 651.885 314.847 644.019 305.596C633.002 292.809 618.083 284.003 601.564 280.539C598.396 279.867 595.19 279.386 591.965 279.098" stroke="black" stroke-width="4.52" stroke-miterlimit="10"/>
<path d="M373.495 296.83L373.024 296.747C367.381 295.802 361.592 296.288 356.186 298.16C350.78 300.033 345.93 303.232 342.081 307.465L310.483 341.89L306.787 345.955C306.557 346.205 306.341 346.467 306.141 346.741" stroke="black" stroke-width="4.52" stroke-miterlimit="10"/>
<path d="M327.859 355.729L345.201 336.493L345.229 336.465" stroke="black" stroke-width="4.52" stroke-miterlimit="10"/>
<path d="M478.719 455.087L560.292 483.83C568.148 486.598 576.508 487.643 584.804 486.892C593.099 486.141 601.136 483.613 608.367 479.479C615.598 475.345 621.854 469.702 626.709 462.934C631.565 456.166 634.906 448.433 636.507 440.258L655.807 341.731C656.795 336.671 656.749 331.465 655.672 326.423C654.596 321.382 652.511 316.611 649.543 312.396C648.714 311.209 647.814 310.073 646.845 308.996" stroke="black" stroke-width="4.52" stroke-miterlimit="10"/>
<path d="M424.735 451.116C414.35 458.129 406.719 479.425 402.663 493.404C401.968 495.748 400.531 497.805 398.569 499.264C396.606 500.723 394.224 501.507 391.779 501.498C390.123 501.498 388.487 501.138 386.984 500.445C384.676 499.363 382.802 497.535 381.663 495.258C380.523 492.979 380.183 490.383 380.701 487.888C387.492 454.683 411.458 389.13 493.789 403.58C495.434 403.858 497.106 404.162 498.797 404.504L508.572 406.86L535.985 413.54L543.376 415.323C546.18 416.003 549.118 415.898 551.867 415.019C552.037 414.985 552.203 414.939 552.366 414.88C554.898 414.011 557.169 412.518 558.97 410.537C560.771 408.557 562.043 406.155 562.668 403.553L568.904 377.609L569.265 376.103L577.432 342.186" stroke="black" stroke-width="4.52" stroke-miterlimit="10"/>
<path d="M384.583 344.797H356.644C353.458 344.797 350.404 343.532 348.151 341.28C345.899 339.028 344.633 335.972 344.633 332.786C344.633 329.601 345.899 326.546 348.151 324.294C350.404 322.041 353.458 320.775 356.644 320.775H396.225" stroke="black" stroke-width="4.52" stroke-miterlimit="10"/>
<path d="M363.134 344.791C362.737 349.688 360.87 353.31 358.117 355.813C351.021 362.281 338.022 361.542 328.977 357.116" stroke="black" stroke-width="4.52" stroke-miterlimit="10"/>
<path d="M310.518 341.879C302.508 332.196 304.143 319.067 310.361 308.923C327.999 280.133 368.301 285.658 394.438 297.623C415.615 307.287 434.167 321.812 452.23 336.299C461.053 343.376 469.72 350.749 478.1 358.473C479.638 359.865 481.472 360.891 483.464 361.471C485.456 362.052 487.553 362.173 489.599 361.827C491.645 361.48 493.585 360.674 495.274 359.469C496.963 358.264 498.357 356.692 499.35 354.87C503.97 346.342 508.968 337.038 509.911 334.46" stroke="black" stroke-width="4.52" stroke-miterlimit="10"/>
<path d="M358.129 355.812C358.129 355.812 399.807 378.421 430.768 410.906" stroke="black" stroke-width="4.52" stroke-miterlimit="10"/>
<path d="M414.562 463.377C409.942 471.267 413.915 482.853 422.646 485.625C433.797 489.223 445.587 490.404 457.229 489.09C469.933 487.611 478.377 477.125 483.94 465.114C484.342 464.22 484.552 463.251 484.556 462.272C484.559 461.292 484.357 460.321 483.962 459.425C483.566 458.528 482.986 457.724 482.26 457.066C481.533 456.409 480.676 455.912 479.745 455.607C478.064 455.053 476.237 455.154 474.626 455.888C473.017 456.623 471.743 457.938 471.06 459.57C469.212 463.839 466.357 469.179 462.569 471.581" stroke="black" stroke-width="4.52" stroke-miterlimit="10"/>
<path d="M436.322 461.898C436.322 461.898 424.912 474.168 433.911 487.159C434.306 487.705 434.772 488.195 435.297 488.618" stroke="black" stroke-width="4.52" stroke-miterlimit="10"/>
<path d="M451.373 463.922C451.373 463.922 440.822 487.667 454.358 489.404" stroke="black" stroke-width="4.52" stroke-miterlimit="10"/>
<path d="M825.979 548H172.543" stroke="black" stroke-width="4.52" stroke-miterlimit="10"/>
<path d="M429.605 503.252H364.44C363.779 509.403 360.865 515.093 356.259 519.225C351.653 523.356 345.682 525.638 339.494 525.629H120.469C120.481 531.553 122.84 537.231 127.029 541.419C131.217 545.608 136.894 547.967 142.818 547.979H429.605C435.538 547.976 441.229 545.624 445.431 541.435C449.634 537.246 452.006 531.563 452.028 525.629V510.606C452.028 508.646 451.249 506.766 449.864 505.38C448.478 503.994 446.597 503.215 444.637 503.215L429.605 503.252Z" stroke="black" stroke-width="4.52" stroke-miterlimit="10"/>
<path d="M328.981 357.116C330.901 359.772 332.283 362.78 333.047 365.967L363.915 494.707C364.597 497.502 364.775 500.395 364.442 503.253C363.78 509.405 360.866 515.094 356.26 519.226C351.655 523.357 345.683 525.639 339.496 525.631H116.405C110.771 525.63 105.3 523.731 100.877 520.241C96.4536 516.752 93.3344 511.873 92.0225 506.394L61.2096 377.664C60.3235 373.978 60.2856 370.14 61.0978 366.437C61.9099 362.733 63.5508 359.263 65.8985 356.286C68.2453 353.309 71.2369 350.903 74.6481 349.251C78.0592 347.597 81.8011 346.738 85.5919 346.74H308.664C312.329 346.733 315.95 347.535 319.269 349.089C322.588 350.643 325.522 352.91 327.863 355.73L328.981 357.116Z" stroke="black" stroke-width="4.52" stroke-miterlimit="10"/>
<path d="M294.037 196.899C292.615 195.227 291.118 193.619 289.556 192.058C280.795 183.266 270.382 176.291 258.917 171.533C247.452 166.777 235.16 164.332 222.747 164.34H105.797C93.3877 164.334 81.0986 166.775 69.6327 171.522C58.1668 176.27 47.7495 183.229 38.9751 192.005C30.2006 200.78 23.2416 211.198 18.4958 222.664C13.75 234.131 11.3104 246.419 11.3165 258.83V259.504C11.3045 268.308 13.547 276.97 17.8301 284.663C22.6433 289.564 28.3885 293.454 34.7274 296.102C41.0664 298.751 47.8711 300.103 54.7409 300.083H169.4C172.899 300.083 176.255 301.472 178.729 303.947C181.203 306.421 182.594 309.777 182.594 313.276C182.598 316.78 183.993 320.138 186.472 322.614C188.951 325.089 192.311 326.479 195.815 326.479H196.101L224.41 325.759C224.41 325.481 224.355 325.232 224.355 324.983C221.908 324.141 219.784 322.555 218.282 320.449C216.78 318.341 215.973 315.818 215.975 313.23V312.62C215.978 309.122 217.368 305.768 219.842 303.293C222.316 300.82 225.671 299.429 229.169 299.427H257.08C270.803 299.427 283.963 293.976 293.666 284.273C303.369 274.57 308.82 261.409 308.82 247.687C308.868 229.69 303.737 212.059 294.037 196.899ZM91.5131 251.641C87.0386 251.643 82.6638 250.317 78.9431 247.833C75.2216 245.348 72.3214 241.815 70.6084 237.681C68.8964 233.547 68.4483 228.999 69.3214 224.61C70.1945 220.222 72.3491 216.19 75.5144 213.027C78.6789 209.863 82.7109 207.711 87.0995 206.839C91.4882 205.967 96.0366 206.417 100.17 208.132C104.303 209.847 107.834 212.748 110.318 216.47C112.801 220.192 114.125 224.568 114.122 229.042C114.114 235.035 111.729 240.781 107.491 245.017C103.252 249.254 97.5057 251.636 91.5131 251.641ZM165.307 251.641C160.833 251.64 156.46 250.311 152.742 247.824C149.023 245.337 146.125 241.803 144.416 237.668C142.706 233.534 142.261 228.986 143.136 224.598C144.011 220.211 146.168 216.182 149.333 213.02C152.499 209.859 156.53 207.707 160.918 206.838C165.307 205.967 169.855 206.419 173.986 208.134C178.118 209.849 181.649 212.751 184.132 216.472C186.615 220.194 187.938 224.569 187.934 229.042C187.934 232.012 187.348 234.953 186.211 237.697C185.073 240.441 183.407 242.933 181.305 245.032C179.204 247.131 176.709 248.795 173.964 249.929C171.219 251.063 168.277 251.645 165.307 251.641ZM235.59 251.641C231.116 251.638 226.745 250.307 223.027 247.819C219.309 245.331 216.414 241.796 214.706 237.662C212.997 233.528 212.553 228.979 213.429 224.593C214.305 220.206 216.463 216.178 219.628 213.018C222.794 209.857 226.826 207.706 231.214 206.837C235.602 205.968 240.149 206.419 244.281 208.135C248.412 209.85 251.942 212.752 254.424 216.473C256.907 220.195 258.23 224.569 258.226 229.042C258.226 232.013 257.64 234.954 256.502 237.699C255.365 240.444 253.696 242.936 251.594 245.035C249.491 247.135 246.996 248.798 244.25 249.931C241.503 251.065 238.56 251.646 235.59 251.641Z" fill="#00CC83" fill-opacity="0.1"/>
<path d="M308.819 247.695C308.819 261.418 303.368 274.578 293.665 284.281C283.962 293.984 270.801 299.435 257.079 299.435H229.186C225.689 299.437 222.336 300.827 219.863 303.299C217.389 305.771 215.997 309.123 215.992 312.62V313.229C215.99 315.817 216.797 318.341 218.299 320.448C219.802 322.555 221.925 324.14 224.372 324.982C225.661 325.43 227.018 325.654 228.382 325.647L224.428 325.758L196.1 326.479H195.795C192.294 326.479 188.935 325.089 186.456 322.616C183.977 320.142 182.581 316.787 182.574 313.285C182.574 309.785 181.184 306.429 178.709 303.955C176.235 301.481 172.879 300.091 169.38 300.091H54.7398C41.0176 300.091 27.8574 294.64 18.1542 284.937C8.45116 275.234 3 262.074 3 248.352V247.677C3.0012 235.275 5.44507 222.996 10.1919 211.539C14.9388 200.082 21.8958 189.672 30.6657 180.904C39.4356 172.136 49.8467 165.181 61.3043 160.436C72.7619 155.692 85.0427 153.25 97.4436 153.252H214.357C239.406 153.254 263.428 163.204 281.143 180.915C298.856 198.626 308.812 222.646 308.819 247.695Z" stroke="black" stroke-width="4.52" stroke-miterlimit="10"/>
<path d="M601.537 280.513C601.481 280.513 601.454 280.457 601.398 280.457C579.492 273.86 568.83 260.39 564.21 247.473C564.21 247.473 564.21 247.473 564.21 247.418C560.598 237.347 560.681 227.599 561.984 221.779C562.763 218.696 563.259 215.548 563.462 212.373C563.767 203.383 557.17 205.582 538.303 209.343C529.637 211.098 524.093 207.809 521.322 203.134C521.052 202.726 520.817 202.297 520.619 201.85C519.326 199.129 518.79 196.109 519.067 193.109" stroke="black" stroke-width="4.52" stroke-miterlimit="10"/>
<path d="M508.213 244.885C507.88 244.414 507.538 243.962 507.206 243.601C504.286 240.266 500.941 240.654 495.712 242.677C494.4 243.176 491.092 243.038 488.478 242.123C486.279 241.338 484.634 239.979 485.383 237.947C485.575 237.528 485.861 237.161 486.218 236.87C486.575 236.58 486.994 236.376 487.443 236.274C488.314 236.055 489.196 235.878 490.085 235.748C499.057 233.743 497.052 223.358 495.961 216.844C493.319 200.454 496.83 181.162 508.019 168.385C520.344 154.332 540.504 151.403 557.532 157.833C572.509 163.488 586.598 175.757 589.518 192.157C589.518 192.213 589.518 192.268 589.573 192.323C589.629 192.379 589.573 192.462 589.573 192.517C591.301 202.764 589.574 213.869 587.569 224.005C586.367 230.01 586.82 234.916 588.493 238.972C593.731 252.249 611.406 256.878 625.653 263.447C659.367 278.978 686.835 305.532 705.35 337.823C719.967 363.434 723.432 379.187 722.628 388.907C721.51 401.962 712.659 404.087 712.659 404.087C705.175 408.512 693.672 403.754 691.362 395.457C691.328 395.369 691.31 395.274 691.307 395.18C689.459 388.075 685.856 378.947 681.014 368.959" stroke="black" stroke-width="4.52" stroke-miterlimit="10"/>
<path d="M519.03 193.109C519.03 198.052 516.702 202.931 511.639 205.01C505.948 207.356 503.638 213.537 502.806 219.552C501.644 228.36 503.539 237.299 508.174 244.877C512.471 252.01 519.465 259.872 529.369 259.872C547.515 259.872 555.294 251.123 555.294 251.123" stroke="black" stroke-width="4.52" stroke-miterlimit="10"/>
<path d="M537.871 222.391C539.576 222.391 540.957 221.009 540.957 219.305C540.957 217.601 539.576 216.219 537.871 216.219C536.166 216.219 534.785 217.601 534.785 219.305C534.785 221.009 536.166 222.391 537.871 222.391Z" fill="black"/>
<path d="M510.727 224.189C512.431 224.189 513.812 222.808 513.812 221.103C513.812 219.4 512.431 218.018 510.727 218.018C509.022 218.018 507.641 219.4 507.641 221.103C507.641 222.808 509.022 224.189 510.727 224.189Z" fill="black"/>
<path d="M524.039 216.402C524.039 216.402 522.496 228.589 523.115 230.261C523.734 231.934 527.596 230.021 527.596 230.021" stroke="black" stroke-width="4.52" stroke-miterlimit="10"/>
<path d="M529.758 240.68C536.364 243.11 543.182 240.015 545.178 234.074" stroke="black" stroke-width="4.52" stroke-miterlimit="10"/>
<path d="M553.846 223.761C558.327 217.417 556.692 208.555 550.195 203.964C543.698 199.374 534.798 200.795 530.317 207.139C525.836 213.482 527.47 222.345 533.967 226.935C540.464 231.525 549.365 230.104 553.846 223.761Z" stroke="black" stroke-width="4.52" stroke-miterlimit="10"/>
<path d="M517.756 225.578C522.237 219.234 520.602 210.371 514.105 205.781C507.608 201.191 498.708 202.612 494.227 208.955C489.746 215.298 491.381 224.161 497.878 228.751C504.375 233.341 513.275 231.92 517.756 225.578Z" stroke="black" stroke-width="4.52" stroke-miterlimit="10"/>
<path d="M505.732 207.468C508.298 207.461 510.772 208.425 512.657 210.165C514.542 211.907 515.699 214.296 515.895 216.855C515.997 218.127 515.843 219.406 515.44 220.615C515.037 221.824 514.394 222.94 513.548 223.896C512.694 224.864 511.653 225.649 510.487 226.205C509.322 226.761 508.056 227.075 506.767 227.13H506.249C503.682 227.137 501.206 226.172 499.321 224.429C497.436 222.685 496.28 220.293 496.086 217.733C495.985 216.462 496.142 215.182 496.547 213.973C496.952 212.763 497.597 211.647 498.442 210.693C499.297 209.727 500.336 208.944 501.5 208.388C502.663 207.832 503.926 207.516 505.214 207.459H505.732V207.468ZM505.732 205.371H505.113C503.555 205.44 502.028 205.823 500.621 206.494C499.213 207.165 497.956 208.112 496.921 209.279C495.887 210.446 495.098 211.809 494.601 213.286C494.103 214.764 493.907 216.326 494.026 217.881C494.276 220.961 495.674 223.835 497.943 225.933C500.212 228.031 503.186 229.2 506.277 229.208H506.896C508.454 229.138 509.981 228.757 511.388 228.085C512.795 227.414 514.053 226.466 515.087 225.3C516.121 224.133 516.91 222.77 517.407 221.293C517.905 219.816 518.101 218.252 517.983 216.698C517.733 213.618 516.335 210.745 514.066 208.646C511.796 206.548 508.822 205.379 505.732 205.371Z" fill="white"/>
<path d="M527.826 216.207L520.25 216.595" stroke="black" stroke-width="4.52" stroke-miterlimit="10"/>
<path opacity="0.53" d="M552.036 222.488C555.832 217.117 554.448 209.611 548.947 205.725C543.445 201.839 535.91 203.042 532.114 208.414C528.319 213.787 529.702 221.292 535.203 225.179C540.705 229.065 548.241 227.861 552.036 222.488Z" fill="white"/>
<path opacity="0.53" d="M515.95 224.305C519.746 218.933 518.362 211.427 512.861 207.541C507.36 203.654 499.824 204.859 496.028 210.231C492.233 215.604 493.616 223.109 499.118 226.995C504.619 230.882 512.155 229.677 515.95 224.305Z" fill="white"/>
<path d="M534.773 259.873L551.598 299.842C551.598 299.842 584.056 308.573 591.946 277.862" stroke="black" stroke-width="4.52" stroke-miterlimit="10"/>
<path d="M215.551 467.023C228.258 463.016 234.909 448.194 230.407 433.915C225.904 419.637 211.954 411.31 199.248 415.316C186.542 419.323 179.89 434.145 184.393 448.424C188.894 462.702 202.844 471.029 215.551 467.023Z" fill="#00CC83" fill-opacity="0.1"/>
<path d="M530.283 547.978C529.923 515.447 524.185 483.303 521.543 470.184" stroke="black" stroke-width="4.52" stroke-miterlimit="10"/>
</svg>
